<svg width="120" height="46" viewBox="0 0 120 46" fill="none" xmlns="http://www.w3.org/2000/svg">
<path d="M64.5249 21.2383H66H67.48V15.7266V10.1751H66.002H64.5249V15.7067V21.2383Z" fill="#868D94"/>
<path d="M58.6763 14.9163H55.5787V12.6888H58.6763C59.5624 12.6888 60.0039 13.21 60.0039 13.81C60.0039 14.41 59.5624 14.9163 58.6763 14.9163ZM62.976 13.7472C62.976 11.6293 61.4581 10.1751 59.0252 10.1751H52.6245V21.2383H55.5797V17.3672H56.6541L60.0209 21.2383H63.6876L60.0209 17.2396C61.8697 16.8439 62.976 15.4854 62.976 13.7472Z" fill="#868D94"/>
<path d="M71.9999 15.8014V15.5961C71.9999 13.9525 72.9158 12.7665 74.8125 12.7665H78.0995V10.1751H74.5593C70.9095 10.1751 69.0437 12.5133 69.0437 15.5961V15.8173C69.0437 19.2459 71.1606 21.2383 74.4168 21.2383H75.4284L76.6145 18.7246H74.8753C73.1062 18.7246 71.9999 17.729 71.9999 15.8014Z" fill="#868D94"/>
<path d="M15.8442 16.5598L17.394 12.8622L18.9419 16.5598H15.8442ZM15.5283 10.1751L10.6445 21.2382H13.9007L14.8336 18.9937H19.9535L20.9023 21.2382H24.2362L19.3525 10.1751H15.5273H15.5283Z" fill="#868D94"/>
<path d="M31.9644 17.1449L29.4368 10.1751H24.7893V21.2383H27.6986V13.2718L30.6219 21.2383H33.2451L36.1684 13.2718V21.2383H39.0767V10.1751H34.478L31.9644 17.1449Z" fill="#868D94"/>
<path d="M41.3362 21.2383H50.693V18.7246H44.2913V16.9555H50.5345V14.4419H44.2913V12.6878H50.693V10.1751H41.3362V21.2383Z" fill="#868D94"/>
<path d="M82.0046 16.5599L83.5544 12.8622L85.1023 16.5599H82.0046ZM81.6887 10.1751L76.8049 21.2383H80.0611L80.994 18.9937H86.1139L87.0627 21.2383H90.3966L85.5129 10.1751H81.6877H81.6887Z" fill="#868D94"/>
<path d="M99.1842 16.9236L94.6793 10.1751H90.9507V21.2383H93.8889V14.2366L98.5354 21.2383H102.107V10.1751H99.1842V16.9236Z" fill="#868D94"/>
<path d="M89.4548 28.6765H86.7358C86.1508 28.6765 85.7242 28.3286 85.7242 27.7914C85.7242 27.2542 86.1508 26.9213 86.7358 26.9213H91.6504L92.8046 24.4077H86.7199C84.2073 24.4077 82.769 25.8938 82.769 27.8851C82.769 29.8765 84.1594 31.1891 86.3262 31.1891H89.0451C89.6451 31.1891 90.0558 31.537 90.0558 32.0742C90.0558 32.6114 89.6451 32.9592 89.0451 32.9592H83.1169V35.4728H89.0601C91.5418 35.4728 93.0109 34.0177 93.0109 31.8848C93.0109 29.8625 91.7162 28.6765 89.4558 28.6765" fill="#868D94"/>
<path d="M66.3238 29.1508H63.2261V26.9232H66.3238C67.2089 26.9232 67.6514 27.4445 67.6514 28.0445C67.6514 28.6445 67.2089 29.1508 66.3238 29.1508ZM70.6235 27.9817C70.6235 25.8638 69.1055 24.4096 66.6726 24.4096H60.272V35.4727H63.2271V31.6016H64.3015L67.6683 35.4727H71.3351L67.6683 31.4741C69.5172 31.0784 70.6235 29.7199 70.6235 27.9817Z" fill="#868D94"/>
<path d="M72.1714 35.4727H81.5282V32.9591H75.1265V31.19H81.3707V28.6764H75.1265V26.9232H81.5282V24.4096H72.1714V35.4727Z" fill="#868D94"/>
<path d="M54.7077 29.3552H51.5313V26.9224H54.7077C55.5928 26.9224 56.0353 27.4745 56.0353 28.1543C56.0353 28.834 55.5928 29.3552 54.7077 29.3552ZM55.0556 24.4087H48.5762V35.4719H51.5313V31.8689H54.9609C57.4576 31.8689 59.0064 30.2881 59.0064 28.1393C59.0064 25.9905 57.4895 24.4087 55.0556 24.4087Z" fill="#868D94"/>
<path d="M100.321 28.6765H97.6025C97.0175 28.6765 96.5909 28.3286 96.5909 27.7914C96.5909 27.2542 97.0175 26.9213 97.6025 26.9213H102.517L103.671 24.4077H97.5866C95.0739 24.4077 93.6357 25.8938 93.6357 27.8851C93.6357 29.8765 95.0261 31.1891 97.1929 31.1891H99.9118C100.512 31.1891 100.922 31.537 100.922 32.0742C100.922 32.6114 100.512 32.9592 99.9118 32.9592H93.9836V35.4728H99.9268C102.408 35.4728 103.878 34.0177 103.878 31.8848C103.878 29.8625 102.583 28.6765 100.322 28.6765" fill="#868D94"/>
<path d="M24.7893 35.4727H34.1461V32.9591H27.7445V31.19H33.9886V28.6764H27.7445V26.9232H34.1461V24.4096H24.7893V35.4727Z" fill="#868D94"/>
<path d="M48.0379 24.4096H44.2764L41.401 27.7445L38.5236 24.4096H34.6674L39.5352 29.8774L34.5728 35.4727H38.3342L41.3522 31.9634L44.3721 35.4727H48.2282L43.2329 29.8146L48.0379 24.4096Z" fill="#868D94"/>
</svg>
