<svg width="127" height="36" viewBox="0 0 127 36" fill="none" xmlns="http://www.w3.org/2000/svg">
<path d="M106.206 3.76642H90.7927V31.4654H106.206V3.76642Z" fill="#F26522"/>
<path d="M91.7719 17.615C91.7719 11.9956 94.4032 6.99212 98.4992 3.7664C95.503 1.4078 91.7234 0 87.614 0C77.8856 0 70 7.88768 70 17.615C70 27.3424 77.8856 35.2318 87.614 35.2318C91.7234 35.2318 95.503 33.824 98.4992 31.4654C94.4032 28.2396 91.7719 23.2345 91.7719 17.6167" fill="#E51B24"/>
<path d="M127 17.615C127 27.3441 119.114 35.2301 109.386 35.2301C105.277 35.2301 101.497 33.8223 98.5007 31.4637C102.597 28.2396 105.228 23.2328 105.228 17.615C105.228 11.9972 102.598 6.99212 98.5007 3.7664C101.497 1.4078 105.277 0 109.386 0C119.114 0 127 7.88601 127 17.615ZM125.319 28.5309V27.9634H125.549V27.8479H124.966V27.9634H125.195V28.5309H125.321H125.319ZM126.449 28.5309V27.8479H126.27L126.066 28.3183L125.862 27.8479H125.683V28.5309H125.808V28.0153L126.001 28.4606H126.131L126.324 28.0137V28.5309H126.451H126.449Z" fill="#F99F1C"/>
<path d="M22.7806 8.34254L14.9253 27.0869H9.80031L5.93469 12.128C5.7 11.2067 5.49594 10.8691 4.78219 10.4809C3.6175 9.84868 1.69313 9.25579 0 8.88762L0.115 8.34254H8.36469C9.41625 8.34254 10.3616 9.04264 10.6003 10.2537L12.6419 21.1001L17.6875 8.34254H22.7806ZM42.8616 20.967C42.8822 16.0198 36.0216 15.7473 36.0687 13.5373C36.0834 12.8647 36.7238 12.1496 38.1253 11.9671C38.82 11.8761 40.7341 11.8067 42.905 12.8059L43.7566 8.83105C42.59 8.40755 41.0891 8 39.2216 8C34.4294 8 31.0569 10.5478 31.0284 14.1961C30.9975 16.8946 33.4356 18.4004 35.2725 19.2971C37.1622 20.2153 37.7962 20.8054 37.7891 21.6268C37.7756 22.8841 36.2819 23.4392 34.8859 23.4611C32.4491 23.4986 31.035 22.8016 29.9078 22.2775L29.0291 26.384C30.1619 26.9037 32.2528 27.3572 34.4206 27.38C39.5141 27.38 42.8459 24.8638 42.8616 20.967ZM55.5159 27.0872H60L56.0859 8.34254H51.9472C51.0166 8.34254 50.2316 8.88449 49.8841 9.71772L42.6087 27.0869H47.6997L48.7106 24.2868H54.9309L55.5163 27.0869L55.5159 27.0872ZM50.1063 20.4454L52.6581 13.4076L54.1269 20.4454H50.1066H50.1063ZM29.7081 8.34254L25.6991 27.0869H20.8509L24.8616 8.34254H29.7081Z" fill="#1434CB"/>
</svg>
