<svg width="100" height="38" viewBox="0 0 100 38" fill="none" xmlns="http://www.w3.org/2000/svg">
<path d="M5.00976 37.5345H0.811035V25.6202H5.14275C6.41356 25.6202 7.50493 25.8587 8.41687 26.3358C9.32881 26.8089 10.0275 27.4896 10.5131 28.3777C11.0028 29.262 11.2477 30.3227 11.2477 31.5599C11.2477 32.801 11.0007 33.8675 10.5067 34.7595C10.017 35.6515 9.3077 36.338 8.37888 36.8189C7.45005 37.2959 6.32701 37.5345 5.00976 37.5345ZM2.76791 35.9637H4.9021C5.89004 35.9637 6.71121 35.7931 7.36561 35.4518C8.02001 35.1066 8.50976 34.6083 8.83485 33.9567C9.15994 33.3013 9.32248 32.5023 9.32248 31.5599C9.32248 30.6252 9.15994 29.8321 8.83485 29.1805C8.51398 28.529 8.03479 28.0345 7.39727 27.6971C6.75976 27.3597 5.96814 27.1909 5.02243 27.1909H2.76791V35.9637Z" fill="#A4A4A4"/>
<path d="M13.4278 37.5345V28.5988H15.3213V37.5345H13.4278ZM14.3841 27.22C14.0548 27.22 13.7719 27.1192 13.5355 26.9175C13.3033 26.712 13.1871 26.4676 13.1871 26.1845C13.1871 25.8975 13.3033 25.6532 13.5355 25.4515C13.7719 25.246 14.0548 25.1432 14.3841 25.1432C14.7134 25.1432 14.9941 25.246 15.2263 25.4515C15.4628 25.6532 15.581 25.8975 15.581 26.1845C15.581 26.4676 15.4628 26.712 15.2263 26.9175C14.9941 27.1192 14.7134 27.22 14.3841 27.22Z" fill="#A4A4A4"/>
<path d="M17.7674 37.5345V28.5988H19.5976V30.0183H19.699C19.8763 29.5373 20.1887 29.1592 20.6362 28.8838C21.088 28.6046 21.5988 28.465 22.1688 28.465C22.287 28.465 22.4263 28.4689 22.5868 28.4766C22.7514 28.4844 22.8802 28.4941 22.9731 28.5057V30.1695C22.8971 30.1501 22.762 30.1288 22.5678 30.1055C22.3736 30.0784 22.1794 30.0648 21.9852 30.0648C21.5376 30.0648 21.1387 30.1521 20.7882 30.3266C20.442 30.4972 20.1676 30.7357 19.965 31.0421C19.7623 31.3446 19.661 31.6898 19.661 32.0776V37.5345H17.7674Z" fill="#A4A4A4"/>
<path d="M28.3545 37.7148C27.3961 37.7148 26.5707 37.5267 25.8783 37.1505C25.1901 36.7704 24.6582 36.2372 24.2824 35.5507C23.9109 34.8604 23.7251 34.0517 23.7251 33.1248C23.7251 32.2095 23.9109 31.4028 24.2824 30.7047C24.6582 30.0066 25.1817 29.4617 25.853 29.07C26.5285 28.6783 27.318 28.4824 28.2215 28.4824C28.7704 28.4824 29.3023 28.5658 29.8174 28.7326C30.3325 28.8994 30.7948 29.1611 31.2043 29.5179C31.6138 29.8748 31.9368 30.3382 32.1732 30.9083C32.4097 31.4746 32.5279 32.163 32.5279 32.9735V33.5902H24.7954V32.2871H30.6723C30.6723 31.8294 30.571 31.4241 30.3684 31.0712C30.1657 30.7144 29.8807 30.4332 29.5134 30.2277C29.1503 30.0221 28.7239 29.9194 28.2342 29.9194C27.7022 29.9194 27.2378 30.0396 26.8409 30.28C26.4483 30.5166 26.1443 30.8269 25.929 31.2108C25.7179 31.5909 25.6123 32.004 25.6123 32.45V33.468C25.6123 34.0653 25.7263 34.5734 25.9543 34.9922C26.1865 35.4111 26.5095 35.731 26.9233 35.9521C27.337 36.1693 27.8204 36.2779 28.3735 36.2779C28.7324 36.2779 29.0596 36.2313 29.3551 36.1383C29.6506 36.0413 29.9061 35.8978 30.1214 35.7078C30.3367 35.5177 30.5014 35.2831 30.6153 35.0038L32.4076 35.3005C32.264 35.7853 32.0065 36.21 31.6349 36.5746C31.2676 36.9353 30.8053 37.2164 30.248 37.4181C29.695 37.6159 29.0638 37.7148 28.3545 37.7148Z" fill="#A4A4A4"/>
<path d="M38.6249 37.7148C37.6834 37.7148 36.8728 37.5189 36.1931 37.1272C35.5176 36.7316 34.9983 36.1867 34.6352 35.4925C34.2721 34.7983 34.0905 34.0032 34.0905 33.1073C34.0905 32.1998 34.2763 31.3989 34.6478 30.7047C35.0194 30.0066 35.5429 29.4617 36.2184 29.07C36.8939 28.6783 37.6897 28.4824 38.6059 28.4824C39.3448 28.4824 40.0034 28.6085 40.5818 28.8606C41.1602 29.1088 41.6267 29.4578 41.9814 29.9077C42.3402 30.3576 42.5534 30.8831 42.621 31.4843H40.7781C40.6768 31.0654 40.4446 30.7047 40.0815 30.4022C39.7226 30.0997 39.2413 29.9484 38.6376 29.9484C38.1098 29.9484 37.6475 30.0764 37.2507 30.3324C36.858 30.5845 36.5519 30.9452 36.3324 31.4145C36.1129 31.8799 36.0031 32.4306 36.0031 33.0666C36.0031 33.7182 36.1107 34.2805 36.3261 34.7537C36.5414 35.2269 36.8454 35.5934 37.238 35.8532C37.6349 36.1131 38.1014 36.243 38.6376 36.243C38.9964 36.243 39.3215 36.1829 39.6128 36.0626C39.9084 35.9385 40.1554 35.7621 40.3538 35.5332C40.5564 35.3044 40.6979 35.0291 40.7781 34.7072H42.621C42.5534 35.285 42.3487 35.8008 42.0067 36.2546C41.6647 36.7084 41.2066 37.0652 40.6324 37.325C40.0625 37.5849 39.3933 37.7148 38.6249 37.7148Z" fill="#A4A4A4"/>
<path d="M49.0853 28.5988V29.995H43.772V28.5988H49.0853ZM45.1969 26.4579H47.0904V34.9108C47.0904 35.2482 47.1453 35.5022 47.2551 35.6729C47.3649 35.8396 47.5063 35.954 47.6794 36.0161C47.8567 36.0743 48.0488 36.1034 48.2557 36.1034C48.4077 36.1034 48.5407 36.0937 48.6547 36.0743C48.7687 36.0549 48.8573 36.0394 48.9207 36.0277L49.2626 37.4647C49.1529 37.5034 48.9967 37.5422 48.794 37.581C48.5913 37.6237 48.338 37.6469 48.034 37.6508C47.5359 37.6586 47.0714 37.5771 46.6408 37.4065C46.2102 37.2358 45.8619 36.9721 45.5959 36.6153C45.3299 36.2585 45.1969 35.8105 45.1969 35.2715V26.4579Z" fill="#A4A4A4"/>
<path d="M60.0476 37.5345H55.8489V25.6202H60.1806C61.4514 25.6202 62.5428 25.8587 63.4547 26.3358C64.3666 26.8089 65.0654 27.4896 65.5509 28.3777C66.0406 29.262 66.2855 30.3227 66.2855 31.5599C66.2855 32.801 66.0385 33.8675 65.5446 34.7595C65.0548 35.6515 64.3455 36.338 63.4167 36.8189C62.4879 37.2959 61.3648 37.5345 60.0476 37.5345ZM57.8057 35.9637H59.9399C60.9279 35.9637 61.749 35.7931 62.4034 35.4518C63.0578 35.1066 63.5476 34.6083 63.8727 33.9567C64.1978 33.3013 64.3603 32.5023 64.3603 31.5599C64.3603 30.6252 64.1978 29.8321 63.8727 29.1805C63.5518 28.529 63.0726 28.0345 62.4351 27.6971C61.7976 27.3597 61.006 27.1909 60.0603 27.1909H57.8057V35.9637Z" fill="#A4A4A4"/>
<path d="M72.658 37.7148C71.6996 37.7148 70.8743 37.5267 70.1819 37.1505C69.4937 36.7704 68.9617 36.2372 68.586 35.5507C68.2144 34.8604 68.0287 34.0517 68.0287 33.1248C68.0287 32.2095 68.2144 31.4028 68.586 30.7047C68.9617 30.0066 69.4852 29.4617 70.1565 29.07C70.832 28.6783 71.6215 28.4824 72.525 28.4824C73.0739 28.4824 73.6059 28.5658 74.1209 28.7326C74.636 28.8994 75.0983 29.1611 75.5078 29.5179C75.9174 29.8748 76.2403 30.3382 76.4768 30.9083C76.7132 31.4746 76.8314 32.163 76.8314 32.9735V33.5902H69.0989V32.2871H74.9759C74.9759 31.8294 74.8745 31.4241 74.6719 31.0712C74.4692 30.7144 74.1843 30.4332 73.817 30.2277C73.4539 30.0221 73.0275 29.9194 72.5377 29.9194C72.0057 29.9194 71.5413 30.0396 71.1445 30.28C70.7518 30.5166 70.4478 30.8269 70.2325 31.2108C70.0214 31.5909 69.9159 32.004 69.9159 32.45V33.468C69.9159 34.0653 70.0299 34.5734 70.2579 34.9922C70.4901 35.4111 70.813 35.731 71.2268 35.9521C71.6405 36.1693 72.1239 36.2779 72.677 36.2779C73.0359 36.2779 73.3631 36.2313 73.6586 36.1383C73.9542 36.0413 74.2096 35.8978 74.4249 35.7078C74.6402 35.5177 74.8049 35.2831 74.9189 35.0038L76.7111 35.3005C76.5676 35.7853 76.31 36.21 75.9385 36.5746C75.5712 36.9353 75.1089 37.2164 74.5516 37.4181C73.9985 37.6159 73.3673 37.7148 72.658 37.7148Z" fill="#A4A4A4"/>
<path d="M78.983 37.5345V25.6202H80.8766V30.0473H80.9906C81.1003 29.8612 81.2587 29.6459 81.4655 29.4016C81.6724 29.1573 81.9595 28.944 82.3268 28.7617C82.6941 28.5755 83.1796 28.4824 83.7834 28.4824C84.5687 28.4824 85.2695 28.6647 85.8859 29.0293C86.5023 29.3938 86.9857 29.9194 87.3362 30.6058C87.6908 31.2923 87.8681 32.1184 87.8681 33.0841C87.8681 34.0498 87.6929 34.8778 87.3425 35.5681C86.9921 36.2546 86.5108 36.784 85.8986 37.1563C85.2864 37.5248 84.5877 37.709 83.8024 37.709C83.2113 37.709 82.7279 37.6178 82.3521 37.4356C81.9806 37.2533 81.6893 37.04 81.4782 36.7956C81.2671 36.5513 81.1046 36.3341 80.9906 36.1441H80.8322V37.5345H78.983ZM80.8386 33.0666C80.8386 33.6949 80.9378 34.2456 81.1362 34.7188C81.3347 35.1919 81.6217 35.5623 81.9975 35.8299C82.3733 36.0937 82.8335 36.2255 83.3781 36.2255C83.9438 36.2255 84.4167 36.0878 84.7967 35.8125C85.1766 35.5332 85.4637 35.1551 85.6579 34.6781C85.8564 34.201 85.9556 33.6639 85.9556 33.0666C85.9556 32.4771 85.8585 31.9477 85.6643 31.4784C85.4743 31.0092 85.1872 30.6388 84.803 30.3673C84.423 30.0958 83.948 29.9601 83.3781 29.9601C82.8292 29.9601 82.3648 30.09 81.9848 30.3499C81.6091 30.6097 81.3241 30.9723 81.1299 31.4377C80.9357 31.9031 80.8386 32.4461 80.8386 33.0666Z" fill="#A4A4A4"/>
<path d="M89.8931 37.5345V28.5988H91.7866V37.5345H89.8931ZM90.8493 27.22C90.52 27.22 90.2372 27.1192 90.0007 26.9175C89.7685 26.712 89.6524 26.4676 89.6524 26.1845C89.6524 25.8975 89.7685 25.6532 90.0007 25.4515C90.2372 25.246 90.52 25.1432 90.8493 25.1432C91.1787 25.1432 91.4594 25.246 91.6916 25.4515C91.928 25.6532 92.0463 25.8975 92.0463 26.1845C92.0463 26.4676 91.928 26.712 91.6916 26.9175C91.4594 27.1192 91.1787 27.22 90.8493 27.22Z" fill="#A4A4A4"/>
<path d="M98.7734 28.5988V29.995H93.4601V28.5988H98.7734ZM94.885 26.4579H96.7785V34.9108C96.7785 35.2482 96.8334 35.5022 96.9432 35.6729C97.053 35.8396 97.1944 35.954 97.3675 36.0161C97.5448 36.0743 97.7369 36.1034 97.9438 36.1034C98.0958 36.1034 98.2288 36.0937 98.3428 36.0743C98.4568 36.0549 98.5454 36.0394 98.6088 36.0277L98.9507 37.4647C98.841 37.5034 98.6847 37.5422 98.4821 37.581C98.2794 37.6237 98.0261 37.6469 97.7221 37.6508C97.224 37.6586 96.7595 37.5771 96.3289 37.4065C95.8983 37.2358 95.55 36.9721 95.284 36.6153C95.018 36.2585 94.885 35.8105 94.885 35.2715V26.4579Z" fill="#A4A4A4"/>
<path d="M83.1682 20.2409C79.6522 20.2815 77.2352 18.3795 76.8865 15.0825C76.8175 14.4296 77.4339 13.1562 77.8395 13.1116C78.8614 13.0021 80.4673 12.2397 80.812 14.1052C81.1284 15.8327 82.2679 16.2058 83.7278 16.2099C86.8964 16.2261 90.065 16.2261 93.2336 16.2099C94.5029 16.2099 95.6993 16.0639 95.756 14.3404C95.8128 12.5357 94.58 12.2316 93.2336 12.191C90.0704 12.0978 86.887 12.264 83.736 12.0126C78.1396 11.5706 76.7445 9.98492 76.6229 4.30742H67.9687V10.723C67.9687 13.2089 67.9241 15.6949 67.9687 18.1808C68.0052 19.6083 67.7254 20.4072 65.9897 20.4031C64.254 20.3991 63.7633 19.8029 63.7917 18.1686C63.8647 13.6064 63.816 9.04002 63.816 4.12087H55.1213V0.138506C67.9119 0.114174 80.6985 0.0573988 93.5175 0.0898416C97.1916 0.0898416 99.7222 2.41356 99.706 5.60919C99.706 6.20127 99.0287 7.27594 98.6475 7.28405C97.6134 7.30433 95.9669 8.14784 95.7155 6.24182C95.5127 4.71701 94.4989 4.31147 93.3472 4.27903C89.7784 4.17764 86.2057 4.14926 82.641 4.27903C82.0003 4.30336 81.392 5.19148 80.7715 5.68218C81.3717 6.35943 81.911 7.53954 82.5883 7.6247C85.1148 7.94913 87.6899 7.86397 90.2408 8.03024C92.2441 8.16001 94.2961 8.20056 96.2184 8.70748C98.7002 9.35634 100.136 11.8463 99.9898 14.4945C99.8195 17.6793 98.3907 19.5894 95.7033 20.2247C92.7064 20.1071 89.7095 19.9408 86.7126 19.8922C85.5251 19.9354 84.3414 20.0519 83.1682 20.2409Z" fill="#A4A4A4"/>
<path d="M39.0824 20.2734C36.3369 20.8817 34.4877 19.9043 32.8534 17.5522C29.9659 13.3793 26.7176 9.478 23.2503 4.98061C23.2503 9.68888 23.2503 13.8091 23.2503 17.9253C23.2503 20.2815 23.0637 20.4031 20.7319 20.3585C19.6329 20.3342 19.1341 19.9895 19.1422 18.8418C19.1665 13.0751 19.1179 7.30433 19.2152 1.53355C19.2152 1.04691 20.0506 0.243947 20.5981 0.146618C23.2057 -0.327859 25.2212 0.296667 26.8514 2.79477C29.313 6.57436 32.2694 10.0336 35.3677 14.093V3.54907C35.3677 -0.0196515 35.3677 -0.0196513 39.0581 0.16284L39.565 4.26281V8.10729V12.3249C39.565 13.6185 39.565 14.9081 39.565 16.2018C39.3987 17.5482 39.2405 18.9067 39.0824 20.2734Z" fill="#A4A4A4"/>
<path d="M7.65741 20.3341C6.06687 20.3625 4.50877 19.8827 3.20977 18.9644C1.91077 18.0461 0.938642 16.7373 0.434814 15.2284C-0.0886154 13.7696 -0.140825 12.1832 0.28555 10.6931C0.711925 9.20293 1.59537 7.88427 2.81125 6.92307C4.05394 5.9337 5.56323 5.33701 7.14651 5.20916C8.7298 5.08132 10.3153 5.42811 11.7006 6.20527C12.1061 6.44859 12.609 6.69597 12.7874 7.06906C13.0075 7.68788 13.1544 8.33028 13.2254 8.98319C12.539 9.10558 11.842 9.15857 11.145 9.14135C10.7395 9.09269 10.3867 8.61416 9.97302 8.39922C8.94277 7.86333 7.75743 7.70498 6.62263 7.95164C5.48783 8.19831 4.47518 8.83442 3.76035 9.74964C3.04552 10.6649 2.67361 11.8014 2.70914 12.9622C2.74467 14.1229 3.1854 15.2346 3.95487 16.1044C4.72933 17.0064 5.80447 17.5971 6.9811 17.7671C8.15774 17.9371 9.35612 17.6749 10.3542 17.029C10.7598 16.7817 11.0923 16.2788 11.4897 16.2423C12.0844 16.1594 12.6884 16.3042 13.1808 16.6478C13.4201 16.8668 13.3268 17.8198 13.0429 18.1605C11.6641 19.7948 9.80269 20.4477 7.65741 20.3341Z" fill="#C1C1C1"/>
<path d="M39.5691 4.24657L39.0621 0.146606H55.1092V4.12897L39.5691 4.24657Z" fill="#C1C1C1"/>
<path d="M39.0824 20.2734C39.2406 18.9108 39.3987 17.5522 39.5528 16.1896C44.0745 16.1896 48.5922 16.2707 53.1099 16.1653C54.8091 16.1247 55.2836 16.6682 55.2836 18.3309C55.2836 19.9206 54.878 20.4234 53.2559 20.3829C48.5233 20.249 43.7947 20.2937 39.0824 20.2734Z" fill="#C1C1C1"/>
<path d="M39.569 12.3086V8.09106H51.8486C54.6225 8.09106 54.6225 8.09107 54.5616 10.7919C54.5616 11.1975 54.4927 11.5746 54.4238 12.2924L39.569 12.3086Z" fill="#C1C1C1"/>
<path d="M8.7929 14.1255C7.64929 14.1255 6.47729 14.2714 5.37018 14.0687C4.74565 13.9551 4.22656 13.2576 3.65881 12.8318C4.19007 12.3573 4.69699 11.5138 5.25663 11.4732C7.60621 11.3191 9.96337 11.3191 12.313 11.4732C12.8807 11.5097 13.3957 12.3533 13.9351 12.8277C13.3633 13.2617 12.8401 13.9511 12.2116 14.0687C11.1085 14.2714 9.93651 14.1255 8.7929 14.1255Z" fill="#C1C1C1"/>
<path d="M83.1682 20.241C84.3347 20.0527 85.5116 19.9363 86.6923 19.8922C89.6892 19.9409 92.6861 20.1071 95.6831 20.2248L83.1682 20.241Z" fill="#A4A4A4"/>
</svg>
