<svg width="160" height="160" viewBox="0 0 160 160" fill="none" xmlns="http://www.w3.org/2000/svg">
<path d="M25.5999 0.795898H134.399C148.559 0.795898 159.999 12.179 159.999 26.2685V134.527C159.999 148.617 148.559 160 134.399 160H25.5999C11.4399 160 0 148.617 0 134.527V26.2685C0 12.179 11.4399 0.795898 25.5999 0.795898Z" fill="#EAEEEF"/>
<path d="M113.071 49.4014H121.071" stroke="#333333" stroke-width="2" stroke-linecap="square"/>
<path d="M117.071 54.9734V43.8291" stroke="#333333" stroke-width="2" stroke-linecap="square"/>
<path d="M97.4478 29.2061H110.248" stroke="#333333" stroke-width="2" stroke-linecap="square"/>
<path d="M103.848 38.7582V26.8179" stroke="#333333" stroke-width="2" stroke-linecap="square"/>
<path d="M103.848 23.6339V19.6538" stroke="#333333" stroke-width="2" stroke-linecap="square"/>
<path d="M124.951 32.7881H130.551" stroke="#333333" stroke-width="2" stroke-linecap="square"/>
<path d="M127.751 36.7683V28.8081" stroke="#333333" stroke-width="2" stroke-linecap="square"/>
<path d="M17.406 110.647H0" stroke="#333333" stroke-width="2" stroke-linejoin="round"/>
<path d="M160 110.647L28.2837 110.647" stroke="#333333" stroke-width="2" stroke-linejoin="round"/>
<path d="M135.446 65.2734H78.952C76.4377 65.2734 74.3994 67.3052 74.3994 69.8116V106.108C74.3994 108.615 76.4377 110.647 78.952 110.647H135.446C137.961 110.647 139.999 108.615 139.999 106.108V69.8116C139.999 67.3052 137.961 65.2734 135.446 65.2734Z" fill="white" stroke="#333333" stroke-width="2"/>
<path d="M139.999 75.6216H74.3994V84.3778H139.999V75.6216Z" fill="#333333"/>
<path d="M134.002 101.89H121.995C120.893 101.89 119.999 102.957 119.999 104.274V104.282C119.999 105.599 120.893 106.666 121.995 106.666H134.002C135.105 106.666 135.999 105.599 135.999 104.282V104.274C135.999 102.957 135.105 101.89 134.002 101.89Z" fill="#333333"/>
<path d="M86.0908 33.4326H45.1089C40.0782 33.4326 36 37.488 36 42.4906V126.265C36 131.268 40.0782 135.323 45.1089 135.323H86.0908C91.1215 135.323 95.1997 131.268 95.1997 126.265V42.4906C95.1997 37.488 91.1215 33.4326 86.0908 33.4326Z" fill="white" stroke="#333333" stroke-width="2"/>
<path d="M65.8708 65.2896C66.2255 65.5479 66.6206 65.7659 66.9432 66.0647C69.7008 68.5919 72.9422 70.0937 76.6432 70.5701C77.7398 70.7154 78.8445 70.7558 79.9491 70.8123C81.0538 70.8688 81.5295 71.3291 81.5376 72.4272C81.5618 74.914 81.6182 77.4009 81.594 79.8958C81.5618 82.8994 81.2796 85.8788 80.4974 88.7936C78.909 94.7282 75.3209 99.0317 69.8621 101.785C68.6606 102.391 67.3866 102.875 66.1368 103.376C65.8385 103.497 65.4273 103.521 65.1289 103.416C62.2907 102.439 59.6379 101.115 57.2915 99.2174C54.0904 96.6256 51.9859 93.3071 50.8248 89.375C50.083 86.872 49.6959 84.2963 49.6395 81.6964C49.5669 78.5394 49.6153 75.3743 49.6234 72.2172C49.6234 71.3856 50.1717 70.885 51.0586 70.8365C52.0101 70.7881 52.9696 70.7639 53.9211 70.667C57.8317 70.2552 61.2666 68.7695 64.1855 66.105C64.5161 65.7982 64.9112 65.5641 65.2741 65.2896L65.8708 65.2896Z" fill="#00AE71" stroke="#333333" stroke-width="2"/>
<path d="M63.7332 90.2474C63.1446 90.2474 62.5802 89.9648 61.9996 89.3915L61.024 88.4145C60.2257 87.6152 59.4355 86.8158 58.6292 86.0246C57.8148 85.2171 57.831 84.3774 57.9842 83.8203C58.2422 82.8837 59.0566 82.262 60.0161 82.262C60.5805 82.262 61.1288 82.488 61.5562 82.8918C62.1932 83.5054 62.814 84.1352 63.443 84.765L63.7413 85.0718L69.4017 79.4037C69.5226 79.2826 69.6436 79.1534 69.7807 79.0484C70.1596 78.7335 70.6434 78.564 71.1433 78.564C71.6997 78.564 72.2238 78.7739 72.6189 79.1534C73.4172 79.9204 73.4897 81.1558 72.8044 82.0278C72.6915 82.1651 72.5705 82.2943 72.4415 82.4234L65.491 89.3834C64.9105 89.9648 64.338 90.2474 63.7494 90.2474H63.7332Z" fill="white"/>
<path d="M71.1349 79.3551C71.4655 79.3551 71.7961 79.4762 72.0541 79.7184C72.5459 80.1948 72.5943 80.9699 72.167 81.5109C72.0783 81.6239 71.9734 81.737 71.8606 81.8419C69.5464 84.1673 67.2242 86.4846 64.9101 88.81C64.4908 89.2299 64.1199 89.4398 63.7409 89.4398C63.3619 89.4398 62.991 89.2299 62.5798 88.8181C61.459 87.6958 60.3382 86.5654 59.2013 85.443C58.7981 85.0393 58.6127 84.5791 58.7659 84.022C58.9352 83.4083 59.4593 83.0531 60.0157 83.0531C60.3543 83.0531 60.7011 83.1823 60.9913 83.4649C61.8138 84.2561 62.612 85.0797 63.4184 85.8871C63.5151 85.984 63.5796 86.1051 63.6845 86.2505C65.8131 84.1189 67.8612 82.068 69.9012 80.0252C70.0222 79.9041 70.1431 79.7749 70.2802 79.6619C70.5301 79.46 70.8285 79.3551 71.1349 79.3551ZM71.1349 77.7402C70.4576 77.7402 69.7883 77.9744 69.2642 78.4104C69.0868 78.5557 68.9417 78.7011 68.8288 78.8222L68.7723 78.8787L63.7409 83.917C63.2087 83.3841 62.6685 82.8351 62.1121 82.3022C61.5396 81.7531 60.7898 81.4463 60.0157 81.4463C58.6933 81.4463 57.5645 82.3102 57.2097 83.594C56.9113 84.6841 57.2097 85.7418 58.0644 86.5896C58.8465 87.3647 59.6287 88.1479 60.4108 88.9311L61.4348 89.9565C62.1686 90.6913 62.9265 91.0546 63.7409 91.0546C64.5553 91.0546 65.3132 90.6913 66.055 89.9565C68.3773 87.6392 70.6914 85.3139 73.0136 82.9885C73.1507 82.8512 73.2958 82.7059 73.441 82.5202C74.3924 81.3171 74.2795 79.6135 73.1829 78.5557C72.6346 78.0309 71.909 77.7402 71.151 77.7402H71.1349Z" fill="#333333"/>
<path d="M65.5998 128.955C68.2507 128.955 70.3998 126.817 70.3998 124.179C70.3998 121.541 68.2507 119.403 65.5998 119.403C62.9488 119.403 60.7998 121.541 60.7998 124.179C60.7998 126.817 62.9488 128.955 65.5998 128.955Z" fill="white" stroke="#333333" stroke-width="2"/>
<path d="M75.2839 41.3926H56.7158C55.4368 41.3926 54.3999 42.4599 54.3999 43.7764V43.7849C54.3999 45.1014 55.4368 46.1687 56.7158 46.1687H75.2839C76.5629 46.1687 77.5998 45.1014 77.5998 43.7849V43.7764C77.5998 42.4599 76.5629 41.3926 75.2839 41.3926Z" fill="white" stroke="#333333" stroke-width="2"/>
</svg>
