<svg width="40" height="40" viewBox="0 0 40 40" fill="none" xmlns="http://www.w3.org/2000/svg">
<rect x="36.5396" y="36.5398" width="3.46021" height="3.46021" fill="white"/>
<path d="M7.14503 23.4572L3.77384 18.3862V23.4572H2.26465V15.5584L2.4553 15.4872C2.63157 15.429 2.81686 15.4031 3.00232 15.4105C3.18327 15.4051 3.36273 15.4449 3.52439 15.5264C3.68246 15.6219 3.81414 15.7554 3.90748 15.9148L7.00783 20.6847V15.4676L7.26975 15.4355C7.3714 15.4218 7.4737 15.4135 7.57622 15.4105C7.70407 15.4055 7.83158 15.4271 7.9506 15.474C8.06963 15.521 8.17758 15.5922 8.26757 15.6832C8.35487 15.7813 8.42186 15.8957 8.46468 16.0199C8.50749 16.1441 8.52528 16.2755 8.51702 16.4066V23.459L7.14503 23.4572ZM14.7444 22.9886C15.0161 22.7608 15.2387 22.4802 15.3985 22.1638C15.5584 21.8474 15.6523 21.5018 15.6745 21.148C15.7033 20.837 15.7152 20.5248 15.7102 20.2125V16.4048C15.7102 15.774 15.3538 15.4105 14.7142 15.4105C14.6075 15.4135 14.501 15.4218 14.3952 15.4355L14.1333 15.4676V20.3444C14.1375 20.6201 14.1166 20.8956 14.0709 21.1676C14.0342 21.4672 13.8813 21.7405 13.6451 21.9284C13.3342 22.1116 12.9752 22.1967 12.6152 22.1725C12.1109 22.1725 11.7581 22.0389 11.5336 21.7645C11.3091 21.4901 11.1773 20.9983 11.1773 20.339V16.4048C11.1773 15.774 10.8209 15.4105 10.1812 15.4105C10.0746 15.4135 9.96811 15.4218 9.86229 15.4355L9.60036 15.4676V20.2446C9.59323 20.6231 9.61767 21.0016 9.67341 21.376C9.81418 22.1191 10.1349 22.6857 10.6231 23.0616C11.1113 23.4376 11.7688 23.6247 12.5831 23.6247C13.474 23.6247 14.2046 23.4091 14.7213 22.9868L14.7444 22.9886ZM22.9247 23.459V16.4048C22.9247 15.774 22.5684 15.4123 21.9287 15.4123C21.822 15.4138 21.7155 15.4215 21.6098 15.4355L21.3496 15.4693V18.5857H18.3615V16.4048C18.3615 15.774 18.0052 15.4105 17.3637 15.4105C17.2576 15.4135 17.1518 15.4219 17.0465 15.4355L16.7846 15.4676V23.4572H18.3615V20.0165H21.3478V23.4572L22.9247 23.459ZM28.2702 22.9458C28.5304 22.7094 28.7354 22.4186 28.8706 22.094C29.0058 21.7694 29.0679 21.4191 29.0524 21.0678C29.0679 20.5133 28.8716 19.9736 28.5036 19.5586C28.1472 19.1684 27.6127 18.8548 26.8697 18.6231C26.5287 18.5282 26.1976 18.4012 25.8808 18.2436C25.7383 18.1719 25.6159 18.066 25.5244 17.9354C25.4393 17.7804 25.4083 17.6014 25.4364 17.4268C25.4645 17.2522 25.55 17.0919 25.6794 16.9714C25.9271 16.8008 26.2259 16.7203 26.5258 16.7433C26.7735 16.7446 27.0194 16.7849 27.2545 16.8627C27.4769 16.9323 27.6859 17.0389 27.8728 17.1781L27.9993 17.269C28.0293 17.2929 28.0578 17.3184 28.0849 17.3456L28.2969 17.5505L28.5054 17.3438C28.819 17.0356 28.9651 16.779 28.9651 16.5366C28.9641 16.3711 28.9055 16.2111 28.7994 16.0841C28.6854 15.9501 28.5477 15.8383 28.3931 15.7544C28.1204 15.5986 27.8253 15.4856 27.5182 15.4195C27.1931 15.3414 26.8601 15.3013 26.5258 15.3001C26.0522 15.2929 25.5823 15.3852 25.1466 15.5709C24.751 15.7408 24.4122 16.0202 24.1702 16.3763C23.9282 16.7512 23.8041 17.1899 23.8139 17.636C23.8039 18.0079 23.8898 18.376 24.0633 18.7051C24.2427 19.0211 24.5004 19.2856 24.8117 19.4731C25.2344 19.7162 25.6881 19.9009 26.1605 20.0219C26.4546 20.1051 26.7371 20.2248 27.0015 20.3782C27.1419 20.4616 27.2576 20.5809 27.3365 20.7239C27.4092 20.8812 27.4452 21.0531 27.4416 21.2264C27.4499 21.3597 27.4277 21.4932 27.3768 21.6166C27.3259 21.7401 27.2475 21.8504 27.1476 21.9391C26.8751 22.1357 26.5419 22.2297 26.2068 22.2046C25.898 22.2047 25.5917 22.1479 25.3034 22.0371C24.9967 21.921 24.7104 21.7568 24.4553 21.5507L24.2183 21.36L24.0401 21.6006C23.9376 21.7306 23.847 21.8695 23.7693 22.0157C23.6936 22.1462 23.6497 22.2927 23.641 22.4433C23.6454 22.5789 23.6856 22.7108 23.7576 22.8257C23.8296 22.9406 23.9308 23.0343 24.0508 23.0973C24.3352 23.288 24.6533 23.4228 24.9881 23.4946C25.3901 23.5911 25.8023 23.6389 26.2157 23.6372C27.0763 23.6372 27.7713 23.4073 28.2791 22.9565L28.2702 22.9458Z" fill="#002E6D"/>
<path d="M2.24146 25.8645C2.2654 25.8578 2.28983 25.8531 2.31451 25.8502C2.34537 25.8485 2.3763 25.8485 2.40716 25.8502C2.45829 25.8468 2.5094 25.8572 2.55505 25.8805C2.59567 25.908 2.62924 25.9446 2.65305 25.9874L4.03396 28.1113V25.852H4.08741H4.13374C4.16141 25.8519 4.18897 25.8555 4.2157 25.8627C4.24414 25.8696 4.27083 25.8824 4.2941 25.9001C4.32014 25.9219 4.34086 25.9493 4.35468 25.9803C4.37131 26.0247 4.37917 26.0719 4.37785 26.1193V28.6762H4.03574L2.58534 26.4899V28.669H2.24146V25.8645ZM5.06384 27.1331C5.04072 27.0958 5.02104 27.0564 5.00504 27.0155C4.9919 26.9831 4.98408 26.9488 4.98188 26.914C4.98438 26.893 4.9917 26.8729 5.00326 26.8552C5.01521 26.8369 5.03182 26.8221 5.05137 26.8124C5.10603 26.7749 5.16613 26.7461 5.22955 26.7269C5.30778 26.6996 5.38828 26.6793 5.47009 26.6663C5.55622 26.6535 5.64316 26.6469 5.73024 26.6467C5.85069 26.6438 5.97088 26.6595 6.0866 26.693C6.17525 26.7183 6.25612 26.7655 6.3218 26.8302C6.38202 26.8958 6.4249 26.9755 6.44653 27.0619C6.47186 27.1662 6.48383 27.2734 6.48216 27.3808V28.2076C6.48152 28.26 6.4845 28.3124 6.49107 28.3644C6.49415 28.3952 6.5052 28.4246 6.52314 28.4499C6.5406 28.4678 6.56289 28.4801 6.58729 28.4855C6.62224 28.4891 6.65747 28.4891 6.69242 28.4855V28.6637C6.66152 28.6728 6.62994 28.6793 6.59798 28.6833C6.55963 28.689 6.52093 28.692 6.48216 28.6922C6.4025 28.6938 6.32363 28.6761 6.25231 28.6405C6.21879 28.621 6.19063 28.5934 6.17035 28.5604C6.1509 28.528 6.13987 28.4912 6.13827 28.4534C6.06227 28.5255 5.97575 28.5856 5.88169 28.6316C5.75822 28.6853 5.6242 28.7103 5.48969 28.7047C5.41477 28.7044 5.3401 28.696 5.26697 28.6797C5.19244 28.6634 5.12209 28.6318 5.06028 28.5871C4.99791 28.5394 4.94681 28.4786 4.91061 28.4089C4.86679 28.3186 4.84598 28.2188 4.85002 28.1185C4.84336 27.99 4.88321 27.8635 4.96228 27.7621C5.03796 27.669 5.13356 27.5942 5.24202 27.5429C5.3548 27.4897 5.47492 27.4537 5.59838 27.436C5.71327 27.4167 5.82937 27.4053 5.94584 27.4022H6.03493H6.12402V27.3398C6.13144 27.2358 6.09823 27.133 6.03136 27.0529C5.98164 27.0134 5.92449 26.9841 5.86328 26.967C5.80208 26.9498 5.73806 26.9451 5.675 26.9532C5.56542 26.951 5.4563 26.9679 5.35249 27.0031C5.26151 27.0355 5.17524 27.0798 5.09591 27.1349L5.06384 27.1331ZM6.13293 27.6677H6.00998C5.9171 27.6677 5.82429 27.673 5.73202 27.6837C5.6448 27.6937 5.5592 27.7147 5.47722 27.7461C5.40531 27.7738 5.34113 27.8184 5.29013 27.8761C5.23994 27.9365 5.21391 28.0133 5.21708 28.0917C5.21545 28.1727 5.2426 28.2516 5.29369 28.3145C5.33132 28.3503 5.37634 28.3775 5.42559 28.3941C5.47484 28.4108 5.52712 28.4164 5.57878 28.4107C5.65068 28.4107 5.72216 28.3999 5.79082 28.3786C5.85312 28.3597 5.91293 28.3333 5.969 28.3002C6.01547 28.2751 6.05661 28.2412 6.09016 28.2004C6.1182 28.1724 6.13473 28.1349 6.13649 28.0953L6.13293 27.6677ZM7.08798 26.0836H7.1343H7.16281C7.2369 26.0795 7.31009 26.1015 7.3695 26.146C7.39854 26.1748 7.42068 26.2098 7.43425 26.2484C7.44783 26.2869 7.4525 26.3281 7.4479 26.3687V26.6912H8.08401V26.9941H7.44969V28.0775C7.44969 28.3073 7.54234 28.4214 7.72765 28.4214C7.77147 28.4216 7.81496 28.4138 7.85594 28.3982C7.89368 28.3837 7.93005 28.3658 7.96463 28.3448C7.99237 28.3261 8.01858 28.3052 8.04303 28.2824C8.05688 28.2701 8.06942 28.2563 8.08045 28.2414C8.1127 28.2794 8.14189 28.32 8.16775 28.3626C8.19068 28.3963 8.20365 28.4358 8.20517 28.4766C8.20179 28.5076 8.18797 28.5365 8.16597 28.5586C8.13515 28.5917 8.09901 28.6194 8.05906 28.6405C8.00624 28.6687 7.94992 28.6896 7.89157 28.7029C7.81996 28.7209 7.74625 28.7293 7.67241 28.7278C7.54803 28.7349 7.42426 28.7058 7.31605 28.6441C7.23271 28.5895 7.17 28.5086 7.13787 28.4142C7.11611 28.3573 7.10406 28.297 7.10223 28.2361C7.10223 28.1737 7.10223 28.1113 7.10223 28.049L7.08798 26.0836ZM8.50273 26.0409C8.50095 26.0092 8.50644 25.9775 8.51877 25.9482C8.5298 25.9189 8.54679 25.8922 8.56866 25.8698C8.61258 25.827 8.67128 25.8028 8.73259 25.8021C8.76302 25.8021 8.79316 25.808 8.82129 25.8197C8.84942 25.8313 8.87498 25.8483 8.89651 25.8698C8.91839 25.8922 8.93538 25.9189 8.94641 25.9482C8.95874 25.9775 8.96422 26.0092 8.96244 26.0409C8.9623 26.0708 8.95624 26.1003 8.94462 26.1278C8.933 26.1554 8.91605 26.1803 8.89473 26.2012C8.85149 26.2437 8.79322 26.2674 8.73259 26.2672C8.67149 26.2671 8.61276 26.2435 8.56866 26.2012C8.54759 26.1802 8.53091 26.1552 8.51959 26.1277C8.50827 26.1002 8.50254 26.0706 8.50273 26.0409ZM8.56688 26.6663H8.61321H8.6435C8.71748 26.663 8.79037 26.685 8.85019 26.7287C8.87891 26.7577 8.90083 26.7927 8.91439 26.8312C8.92795 26.8697 8.9328 26.9108 8.92859 26.9514V28.2877C8.92189 28.3496 8.93499 28.412 8.96601 28.4659C8.98917 28.4998 9.0444 28.5158 9.1335 28.5158V28.6673C9.09928 28.678 9.06405 28.6851 9.02837 28.6886C8.98505 28.6914 8.94161 28.6914 8.8983 28.6886C8.83313 28.6932 8.76793 28.6803 8.70942 28.6512C8.66719 28.629 8.63293 28.5941 8.61142 28.5514C8.59034 28.5078 8.57707 28.4607 8.57223 28.4125C8.57223 28.3608 8.57223 28.3091 8.57223 28.2592L8.56688 26.6663ZM11.3287 27.6695C11.3299 27.8035 11.3131 27.9372 11.2788 28.0668C11.2466 28.1892 11.1909 28.3042 11.1149 28.4053C11.037 28.5049 10.937 28.5848 10.8227 28.6388C10.6863 28.701 10.5377 28.7314 10.3879 28.7278C10.2398 28.7315 10.0927 28.7029 9.95669 28.6441C9.8443 28.5928 9.74545 28.5159 9.66804 28.4196C9.59198 28.3213 9.53681 28.2085 9.50589 28.0882C9.47012 27.9558 9.45273 27.8191 9.45422 27.6819C9.45326 27.5467 9.47309 27.412 9.51302 27.2828C9.55024 27.1623 9.61078 27.0503 9.6912 26.9532C9.77071 26.8595 9.86906 26.7836 9.97986 26.7304C10.1102 26.6717 10.2521 26.6431 10.395 26.6467C10.5408 26.6429 10.6857 26.6715 10.8191 26.7304C10.9311 26.7824 11.0298 26.8591 11.1077 26.9549C11.1823 27.0522 11.2374 27.1629 11.2699 27.281C11.3072 27.4072 11.3269 27.5379 11.3287 27.6695ZM10.9456 27.6695C10.9459 27.5834 10.9382 27.4975 10.9224 27.4129C10.9082 27.3314 10.8798 27.253 10.8387 27.1812C10.7986 27.1127 10.7416 27.0556 10.673 27.0155C10.5873 26.9709 10.4915 26.9494 10.395 26.9532C10.3014 26.95 10.2086 26.9715 10.126 27.0155C10.0538 27.0552 9.99253 27.1121 9.94778 27.1812C9.90322 27.2524 9.87127 27.3308 9.85335 27.4129C9.83559 27.4972 9.82664 27.5832 9.82662 27.6695C9.82629 27.7579 9.83404 27.8461 9.84978 27.9332C9.86465 28.0178 9.8942 28.0992 9.93709 28.1737C9.9802 28.2474 10.0416 28.3088 10.1153 28.3519C10.197 28.4021 10.2921 28.4263 10.3879 28.4214C10.486 28.4265 10.5833 28.4023 10.6676 28.3519C10.7416 28.3092 10.8031 28.2477 10.8458 28.1737C10.8866 28.098 10.9149 28.0161 10.9296 27.9314C10.945 27.8437 10.9534 27.7549 10.9545 27.6659L10.9456 27.6695ZM11.8062 26.6788H11.8543H11.881C11.9439 26.677 12.0058 26.6937 12.0592 26.7269C12.0861 26.746 12.1084 26.7707 12.1248 26.7993C12.1411 26.8279 12.1509 26.8598 12.1537 26.8926C12.2304 26.8173 12.3204 26.7569 12.4192 26.7144C12.5452 26.6607 12.6813 26.6346 12.8183 26.6378C12.9763 26.6278 13.133 26.6724 13.2619 26.7643C13.3589 26.8479 13.4254 26.9613 13.4508 27.0868C13.4663 27.145 13.4752 27.2048 13.4775 27.265C13.4775 27.3345 13.4775 27.4004 13.4775 27.4645V28.6584H13.1212V27.3238C13.1197 27.2772 13.1119 27.2311 13.098 27.1866C13.0766 27.1173 13.0319 27.0575 12.9715 27.0173C12.8872 26.9728 12.7921 26.9531 12.6971 26.9603C12.6221 26.9588 12.5472 26.9672 12.4744 26.9852C12.4162 26.9989 12.3604 27.0212 12.3087 27.0512C12.267 27.0765 12.2307 27.1098 12.2018 27.1492C12.1781 27.1806 12.1644 27.2185 12.1626 27.2579V28.6566H11.8062V26.6788ZM14.1511 27.1278C14.1275 27.0916 14.1083 27.0527 14.0941 27.012C14.0805 26.9797 14.0726 26.9453 14.0709 26.9104C14.0726 26.8887 14.08 26.8678 14.0923 26.8498C14.1036 26.8317 14.1196 26.8169 14.1386 26.8071C14.1937 26.7703 14.2536 26.7415 14.3168 26.7215C14.3951 26.6948 14.4756 26.6752 14.5573 26.6627C14.6433 26.6485 14.7303 26.6414 14.8175 26.6413C14.9379 26.6395 15.0579 26.6551 15.1738 26.6877C15.2616 26.7148 15.3416 26.7625 15.4072 26.8267C15.4683 26.8913 15.5118 26.9704 15.5338 27.0565C15.5589 27.1609 15.5709 27.2681 15.5694 27.3755V28.204C15.565 28.2562 15.565 28.3086 15.5694 28.3608C15.5712 28.3914 15.5824 28.4206 15.6015 28.4445C15.6172 28.4636 15.6394 28.4763 15.6638 28.4802C15.6988 28.4828 15.734 28.4828 15.769 28.4802V28.6477C15.7379 28.6567 15.7064 28.6638 15.6745 28.669C15.6366 28.6717 15.5984 28.6717 15.5605 28.669C15.4808 28.6708 15.4019 28.6531 15.3306 28.6174C15.2972 28.5984 15.2691 28.5715 15.2487 28.539C15.2287 28.5061 15.217 28.4687 15.2148 28.4303C15.1404 28.5034 15.0543 28.5637 14.96 28.6085C14.8365 28.6623 14.7026 28.6878 14.568 28.6833C14.4924 28.6834 14.417 28.6744 14.3435 28.6566C14.2695 28.6411 14.1997 28.6101 14.1386 28.5657C14.0751 28.5187 14.0233 28.4577 13.9871 28.3875C13.944 28.2976 13.9232 28.1986 13.9266 28.0989C13.9208 27.9706 13.9606 27.8444 14.0388 27.7425C14.1156 27.6498 14.2116 27.575 14.3203 27.5233C14.4331 27.4699 14.5532 27.4339 14.6767 27.4164C14.7945 27.3966 14.9136 27.3853 15.0331 27.3826H15.1222H15.2112V27.3202C15.2187 27.2162 15.1855 27.1134 15.1186 27.0333C15.0688 26.9939 15.0116 26.9648 14.9504 26.9477C14.8893 26.9305 14.8253 26.9257 14.7622 26.9336C14.6521 26.9313 14.5423 26.9481 14.4379 26.9835C14.347 27.0159 14.2607 27.0602 14.1814 27.1153L14.1511 27.1278ZM15.2202 27.6623H15.0954C15.0031 27.6623 14.9109 27.6676 14.8193 27.6784C14.7313 27.6888 14.6451 27.7103 14.5627 27.7425C14.4935 27.7706 14.4323 27.8153 14.3845 27.8726C14.3343 27.9322 14.3082 28.0085 14.3114 28.0864C14.311 28.1672 14.338 28.2457 14.3881 28.3091C14.4259 28.3452 14.4712 28.3726 14.5208 28.3892C14.5703 28.4058 14.623 28.4113 14.6749 28.4053C14.7461 28.4051 14.8169 28.395 14.8852 28.375C14.9473 28.3557 15.0071 28.3294 15.0634 28.2966C15.1095 28.2703 15.1505 28.2359 15.1845 28.1951C15.2127 28.167 15.2297 28.1296 15.2326 28.09L15.2202 27.6623ZM16.1788 25.681C16.1948 25.6801 16.2109 25.6801 16.2269 25.681H16.2554C16.3296 25.678 16.4026 25.7007 16.4621 25.7451C16.491 25.7736 16.513 25.8083 16.5266 25.8466C16.5402 25.8848 16.5449 25.9257 16.5405 25.966V28.2681C16.5375 28.3037 16.5375 28.3395 16.5405 28.375C16.5416 28.401 16.5496 28.4262 16.5636 28.4481C16.5773 28.4699 16.598 28.4863 16.6224 28.4944C16.6606 28.5054 16.7003 28.5102 16.74 28.5087V28.6601C16.7058 28.6708 16.6706 28.678 16.6349 28.6815C16.5916 28.6842 16.5482 28.6842 16.5048 28.6815C16.4397 28.6861 16.3745 28.6732 16.316 28.6441C16.2737 28.6218 16.2395 28.587 16.218 28.5443C16.1969 28.5006 16.1836 28.4536 16.1788 28.4053C16.1788 28.3537 16.1788 28.302 16.1788 28.2521V25.681ZM17.9766 25.8449H18.0319H18.0835C18.1135 25.8448 18.1435 25.8484 18.1726 25.8556C18.2034 25.8621 18.2325 25.8748 18.2581 25.893C18.2861 25.9137 18.3082 25.9413 18.3223 25.9732C18.3417 26.0162 18.3509 26.0632 18.349 26.1104V27.5982C18.3474 27.7065 18.3576 27.8146 18.3793 27.9207C18.3977 28.0119 18.434 28.0985 18.4862 28.1755C18.5378 28.2473 18.6072 28.3044 18.6876 28.3412C18.7877 28.3837 18.896 28.4038 19.0047 28.4C19.1631 28.4101 19.3208 28.3722 19.4573 28.2913C19.5139 28.2487 19.5615 28.1952 19.5973 28.1341C19.6331 28.0729 19.6564 28.0052 19.6658 27.9349C19.6839 27.8254 19.6922 27.7145 19.6907 27.6035V25.8574H19.746H19.7976C19.8276 25.8573 19.8576 25.8609 19.8867 25.868C19.9174 25.8749 19.9464 25.8876 19.9722 25.9055C19.9997 25.9267 20.0217 25.9542 20.0364 25.9856C20.0544 26.0297 20.0629 26.0771 20.0613 26.1246V27.7283C20.0609 27.7878 20.0573 27.8473 20.0506 27.9064C20.0396 28.0199 20.0114 28.1311 19.9669 28.2361C19.9231 28.3381 19.8567 28.4289 19.7727 28.5016C19.6802 28.5819 19.5723 28.6426 19.4555 28.6797C19.3077 28.7274 19.1529 28.7497 18.9976 28.7457C18.7499 28.7636 18.504 28.6921 18.3045 28.5443C18.1387 28.3975 18.0301 28.1968 17.998 27.9777C17.9855 27.9137 17.9784 27.8487 17.9766 27.7835C17.9766 27.7146 17.9766 27.6433 17.9766 27.5697V25.8449ZM20.6493 26.6734H20.6957H20.7242C20.787 26.6719 20.8489 26.6886 20.9023 26.7215C20.9305 26.7393 20.9538 26.7638 20.9701 26.7928C20.9867 26.8217 20.9965 26.854 20.9986 26.8872C21.0756 26.8123 21.1655 26.752 21.2641 26.7091C21.3905 26.6567 21.5264 26.6312 21.6632 26.6342C21.8213 26.6236 21.9781 26.6683 22.1069 26.7607C22.2065 26.84 22.2768 26.9504 22.3064 27.0743C22.3223 27.1355 22.3312 27.1983 22.3331 27.2614C22.3331 27.3309 22.3331 27.3968 22.3331 27.461V28.653H21.9768V27.3202C21.9753 27.2736 21.9675 27.2275 21.9536 27.183C21.9345 27.1102 21.8895 27.0469 21.8271 27.0048C21.7427 26.9606 21.6478 26.9403 21.5527 26.946C21.4777 26.946 21.4029 26.955 21.33 26.9728C21.2717 26.986 21.2157 27.0082 21.1643 27.0387C21.1212 27.0636 21.0841 27.0977 21.0556 27.1385C21.0308 27.1693 21.017 27.2076 21.0164 27.2472V28.6459H20.66L20.6493 26.6734ZM22.8534 26.0373C22.8517 26.0056 22.8571 25.9739 22.8695 25.9447C22.8805 25.9154 22.8975 25.8887 22.9194 25.8663C22.9409 25.8448 22.9665 25.8277 22.9946 25.8161C23.0227 25.8045 23.0529 25.7985 23.0833 25.7986C23.1446 25.7992 23.2033 25.8235 23.2472 25.8663C23.2691 25.8887 23.2861 25.9154 23.2971 25.9447C23.3094 25.9739 23.3149 26.0056 23.3131 26.0373C23.313 26.0672 23.3069 26.0967 23.2953 26.1243C23.2837 26.1518 23.2667 26.1767 23.2454 26.1977C23.2016 26.2398 23.1432 26.2634 23.0824 26.2634C23.0216 26.2634 22.9632 26.2398 22.9194 26.1977C22.898 26.1767 22.8811 26.1518 22.8695 26.1243C22.8578 26.0967 22.8518 26.0672 22.8516 26.0373H22.8534ZM22.9176 26.6627H22.9657H22.9942C23.0682 26.6594 23.1411 26.6814 23.2009 26.7251C23.2296 26.7541 23.2515 26.7891 23.2651 26.8277C23.2786 26.8662 23.2835 26.9072 23.2793 26.9478V28.2842C23.2729 28.3458 23.2853 28.4079 23.3149 28.4624C23.3399 28.4962 23.3969 28.5122 23.4931 28.5122V28.6637C23.4589 28.6744 23.4237 28.6816 23.388 28.6851C23.3447 28.6878 23.3012 28.6878 23.2579 28.6851C23.1927 28.6896 23.1275 28.6767 23.069 28.6477C23.0268 28.6254 22.9925 28.5905 22.971 28.5479C22.9502 28.5041 22.9369 28.4571 22.9318 28.4089C22.9318 28.3572 22.9318 28.3056 22.9318 28.2557L22.9176 26.6627ZM23.6552 26.7055C23.7167 26.6845 23.781 26.673 23.8459 26.6716C23.8817 26.669 23.9177 26.6744 23.951 26.6877C23.9837 26.702 24.0129 26.7233 24.0366 26.75C24.0854 26.8181 24.1222 26.894 24.1452 26.9745L24.6014 28.3109L25.0664 26.9924C25.0903 26.9076 25.1282 26.8275 25.1787 26.7554C25.202 26.7267 25.232 26.704 25.266 26.6895C25.2997 26.6751 25.3365 26.6696 25.3729 26.6734C25.4041 26.6735 25.4352 26.677 25.4656 26.6841C25.4917 26.6892 25.5169 26.6983 25.5404 26.7108L24.7742 28.6708H24.4018L23.6552 26.7055ZM26.0803 27.7389C26.0795 27.9164 26.1371 28.0892 26.2442 28.2307C26.3034 28.2944 26.3765 28.3436 26.4577 28.3745C26.539 28.4054 26.6263 28.4171 26.7128 28.4089C26.8426 28.4112 26.9711 28.3818 27.087 28.3234C27.1279 28.3026 27.1657 28.2763 27.1993 28.245C27.226 28.2219 27.251 28.1968 27.2741 28.1701C27.3057 28.2098 27.3337 28.2521 27.3578 28.2966C27.3776 28.3285 27.3898 28.3645 27.3935 28.4018C27.3924 28.4264 27.385 28.4503 27.3721 28.4713C27.3524 28.4999 27.3276 28.5246 27.299 28.5443C27.222 28.5968 27.1372 28.6371 27.0478 28.6637C26.8021 28.729 26.5432 28.7253 26.2995 28.653C26.1846 28.6176 26.0792 28.5567 25.9912 28.4748C25.8977 28.3821 25.8264 28.2694 25.7827 28.1452C25.7274 27.9866 25.7009 27.8195 25.7043 27.6516C25.7006 27.4952 25.7279 27.3396 25.7845 27.1937C25.8303 27.0746 25.9007 26.9665 25.9912 26.8765C26.0747 26.7969 26.1744 26.7361 26.2834 26.6984C26.392 26.6591 26.5065 26.6392 26.622 26.6396C26.7504 26.6361 26.878 26.6604 26.9961 26.7108C27.0942 26.7537 27.1809 26.819 27.2492 26.9015C27.315 26.9834 27.3646 27.0771 27.3953 27.1777C27.4257 27.2837 27.4413 27.3934 27.4416 27.5037V27.6213C27.4416 27.6605 27.4416 27.6997 27.4309 27.7372L26.0803 27.7389ZM27.0781 27.4717C27.0787 27.4008 27.0703 27.3302 27.0532 27.2614C27.04 27.1971 27.0133 27.1364 26.9748 27.0832C26.9372 27.0323 26.8868 26.9924 26.8286 26.9674C26.7578 26.9371 26.6812 26.9226 26.6041 26.9247C26.5382 26.9231 26.4726 26.9349 26.4114 26.9594C26.3501 26.9839 26.2945 27.0206 26.2478 27.0672C26.1468 27.1744 26.0896 27.3155 26.0874 27.4628L27.0781 27.4717ZM27.896 26.6788C27.9137 26.677 27.9316 26.677 27.9494 26.6788H27.9726C28.0354 26.6772 28.0973 26.6939 28.1508 26.7269C28.178 26.7449 28.2011 26.7686 28.2185 26.7964C28.2349 26.8247 28.2446 26.8564 28.247 26.889C28.2947 26.8225 28.3553 26.7661 28.4251 26.7233C28.5073 26.6701 28.6035 26.6428 28.7013 26.6449C28.7348 26.6451 28.7682 26.6481 28.8011 26.6538C28.8358 26.6592 28.8698 26.6681 28.9027 26.6805C28.9316 26.6929 28.9577 26.7111 28.9793 26.734C28.9992 26.7586 29.0094 26.7897 29.0078 26.8213C29.0074 26.8713 28.9958 26.9206 28.9739 26.9656C28.9556 27.0105 28.933 27.0535 28.9062 27.0939C28.8713 27.0615 28.8309 27.0356 28.7869 27.0173C28.6895 26.9825 28.5831 26.9825 28.4857 27.0173C28.4431 27.0309 28.4033 27.052 28.3681 27.0797C28.3364 27.1052 28.3093 27.1359 28.2879 27.1705C28.2685 27.2022 28.258 27.2385 28.2577 27.2757V28.6708H27.9013L27.896 26.6788ZM30.4315 27.1474C30.3735 27.0815 30.3017 27.0292 30.2212 26.9941C30.1287 26.9508 30.0276 26.9289 29.9254 26.93C29.8842 26.93 29.8431 26.9336 29.8025 26.9407C29.7599 26.9469 29.7184 26.9595 29.6795 26.9781C29.6425 26.9959 29.6102 27.0222 29.5851 27.0547C29.5597 27.092 29.5466 27.1362 29.5477 27.1812C29.5451 27.2218 29.5564 27.262 29.5798 27.2953C29.6033 27.3277 29.6337 27.3544 29.6689 27.3737C29.7112 27.3988 29.7567 27.418 29.8043 27.4307C29.8542 27.4467 29.9094 27.461 29.97 27.477C30.054 27.4968 30.1367 27.5218 30.2176 27.5519C30.293 27.5785 30.3638 27.6164 30.4279 27.6641C30.4894 27.7113 30.5389 27.7723 30.5722 27.8423C30.6111 27.9233 30.6295 28.0126 30.6257 28.1024C30.6286 28.1968 30.6065 28.2902 30.5615 28.3733C30.518 28.4504 30.4569 28.5163 30.3834 28.5657C30.3078 28.6194 30.2234 28.6592 30.1339 28.6833C30.0376 28.7103 29.9381 28.7241 29.8381 28.7243C29.7479 28.7247 29.6579 28.7169 29.5691 28.7011C29.5003 28.6884 29.4329 28.6693 29.3677 28.6441C29.3127 28.626 29.2623 28.5962 29.2198 28.5568C29.2058 28.5461 29.1948 28.532 29.1878 28.5158C29.1806 28.5001 29.177 28.4831 29.1771 28.4659C29.1774 28.4262 29.1872 28.3871 29.2056 28.3519C29.227 28.3127 29.2537 28.2681 29.284 28.2183C29.3102 28.2399 29.3376 28.2601 29.3659 28.2788C29.4071 28.3054 29.45 28.3292 29.4942 28.3501C29.5467 28.3752 29.6017 28.3949 29.6582 28.4089C29.7211 28.4247 29.7857 28.4325 29.8506 28.4321C29.9002 28.4318 29.9497 28.4271 29.9985 28.4178C30.0444 28.4087 30.0884 28.3918 30.1286 28.3679C30.1674 28.3463 30.1999 28.315 30.223 28.277C30.2489 28.2322 30.2613 28.1809 30.2586 28.1292C30.2615 28.0783 30.2484 28.0279 30.2212 27.9848C30.1939 27.9468 30.1586 27.9152 30.1179 27.8922C30.0741 27.8666 30.0274 27.8463 29.9789 27.8316C29.9254 27.8156 29.872 27.8031 29.8185 27.7924C29.7389 27.775 29.6604 27.753 29.5833 27.7265C29.5115 27.7017 29.4442 27.6656 29.3838 27.6196C29.3253 27.5753 29.2773 27.5187 29.243 27.4539C29.2059 27.3773 29.1875 27.293 29.1895 27.208C29.1877 27.1248 29.2073 27.0425 29.2466 26.9692C29.2867 26.8973 29.3435 26.8362 29.4123 26.791C29.4842 26.7442 29.563 26.7088 29.6457 26.6859C29.7341 26.6625 29.8251 26.6505 29.9165 26.6503C30.0161 26.6499 30.1154 26.6612 30.2123 26.6841C30.2872 26.7017 30.3597 26.7287 30.4279 26.7643C30.4718 26.7849 30.5111 26.814 30.5437 26.8498C30.5617 26.872 30.5717 26.8996 30.5722 26.9282C30.5716 26.965 30.5637 27.0014 30.5491 27.0351C30.5337 27.0766 30.5146 27.1165 30.4921 27.1545L30.4315 27.1474ZM31.0106 26.0391C31.0105 26.0075 31.016 25.9762 31.0266 25.9464C31.0383 25.9171 31.0559 25.8904 31.0783 25.868C31.0994 25.8463 31.1249 25.8292 31.1531 25.8182C31.1812 25.8061 31.2116 25.8 31.2422 25.8003C31.2722 25.7999 31.302 25.8059 31.3295 25.8182C31.3583 25.8292 31.3844 25.8462 31.4061 25.868C31.4276 25.8907 31.4446 25.9174 31.456 25.9464C31.4666 25.9762 31.4721 26.0075 31.472 26.0391C31.4719 26.069 31.4658 26.0985 31.4542 26.126C31.4426 26.1536 31.4256 26.1785 31.4043 26.1995C31.3605 26.2416 31.3021 26.2651 31.2413 26.2651C31.1805 26.2651 31.1221 26.2416 31.0783 26.1995C31.0569 26.1785 31.04 26.1536 31.0284 26.126C31.0168 26.0985 31.0107 26.069 31.0106 26.0391ZM31.0747 26.6645H31.1228H31.1495C31.2235 26.6612 31.2964 26.6832 31.3562 26.7269C31.3853 26.7557 31.4074 26.7907 31.421 26.8292C31.4346 26.8678 31.4392 26.909 31.4346 26.9496V28.286C31.4298 28.3477 31.4428 28.4095 31.472 28.4641C31.4952 28.498 31.5522 28.514 31.6395 28.514V28.6655C31.6059 28.676 31.5713 28.6832 31.5362 28.6869C31.4929 28.6895 31.4494 28.6895 31.4061 28.6869C31.3404 28.6916 31.2746 28.6787 31.2155 28.6494C31.1736 28.6266 31.1395 28.5919 31.1175 28.5497C31.0961 28.5062 31.0834 28.459 31.08 28.4107C31.0774 28.3596 31.0774 28.3085 31.08 28.2575L31.0747 26.6645ZM32.0565 26.0819C32.0725 26.081 32.0886 26.081 32.1046 26.0819H32.1331C32.2072 26.0798 32.2799 26.1023 32.3398 26.146C32.3688 26.1748 32.391 26.2098 32.4045 26.2484C32.4181 26.2869 32.4228 26.3281 32.4182 26.3687V26.6912H33.0525V26.9924H32.4182V28.0757C32.4182 28.3056 32.5108 28.4196 32.6944 28.4196C32.7382 28.4198 32.7817 28.412 32.8227 28.3964C32.8607 28.3826 32.8972 28.3647 32.9313 28.343C32.9597 28.3252 32.986 28.3043 33.0097 28.2806C33.0237 28.2678 33.0368 28.2541 33.0489 28.2396C33.0806 28.2781 33.1098 28.3186 33.1363 28.3608C33.1594 28.3943 33.1718 28.4341 33.1719 28.4748C33.1693 28.5057 33.1561 28.5346 33.1345 28.5568C33.1036 28.5899 33.0675 28.6176 33.0276 28.6388C32.9743 28.6658 32.9181 28.6868 32.8601 28.7011C32.7879 28.7192 32.7136 28.7276 32.6391 28.7261C32.5147 28.7333 32.3909 28.7042 32.2828 28.6423C32.1961 28.5892 32.1301 28.5081 32.0957 28.4125C32.0748 28.3552 32.0628 28.2952 32.06 28.2343C32.06 28.1719 32.06 28.1096 32.06 28.0472L32.0565 26.0819ZM34.1145 28.6548H33.9577L33.2663 26.7073C33.3269 26.6854 33.3908 26.674 33.4552 26.6734C33.4881 26.6718 33.5209 26.6772 33.5514 26.6895C33.5822 26.7004 33.6102 26.7181 33.6334 26.7411C33.6818 26.791 33.7167 26.8523 33.7349 26.9193L34.2036 28.3448L34.6722 26.9514C34.6808 26.919 34.6921 26.8874 34.706 26.8569C34.7202 26.8233 34.7394 26.7921 34.763 26.7643C34.7886 26.7337 34.8208 26.7094 34.8573 26.6933C34.8938 26.6772 34.9335 26.6698 34.9733 26.6716C35.0284 26.6713 35.0828 26.6841 35.1319 26.7091L34.3568 28.931C34.3247 29.0201 34.2909 29.1092 34.2534 29.1858C34.2198 29.2632 34.1741 29.3347 34.118 29.3978C34.0628 29.4603 33.9947 29.5102 33.9185 29.5439C33.829 29.5821 33.7324 29.6004 33.6352 29.5974C33.5429 29.6002 33.4509 29.5851 33.3643 29.5528C33.3338 29.5425 33.3071 29.5232 33.2877 29.4974C33.2683 29.4717 33.2572 29.4407 33.2556 29.4085C33.2574 29.3663 33.2684 29.3249 33.2877 29.2873C33.3075 29.2489 33.3301 29.212 33.3554 29.1769C33.3882 29.2033 33.4234 29.2265 33.4605 29.2464C33.5152 29.2756 33.5769 29.2891 33.6387 29.2856C33.6848 29.2876 33.7306 29.2784 33.7724 29.2588C33.8144 29.241 33.8512 29.2128 33.8793 29.1769C33.9551 29.076 34.0113 28.9617 34.045 28.8401L34.1145 28.6548ZM2.24146 29.4655H2.29669H2.34836C2.37838 29.4654 2.4083 29.469 2.43745 29.4762C2.46809 29.4831 2.49712 29.4958 2.52298 29.5136C2.55046 29.5348 2.57245 29.5623 2.58713 29.5938C2.60517 29.6379 2.61367 29.6852 2.61207 29.7328V30.6665H3.96981V29.4726H4.02505H4.07672C4.10674 29.4726 4.13666 29.4762 4.16581 29.4833C4.19634 29.4905 4.22532 29.5032 4.25134 29.5208C4.27881 29.542 4.30081 29.5695 4.31548 29.6009C4.33352 29.645 4.34203 29.6923 4.34043 29.7399V32.2968H3.96803V30.9907H2.61029V32.2932H2.24146V29.4655ZM5.21173 31.3631C5.21146 31.5408 5.2697 31.7136 5.37744 31.8549C5.43604 31.9189 5.50875 31.9683 5.58979 31.9992C5.67083 32.0302 5.75796 32.0418 5.84427 32.0331C5.91636 32.0347 5.98831 32.0263 6.05809 32.0082C6.11398 31.9933 6.16828 31.973 6.22024 31.9476C6.26077 31.9262 6.29848 31.8999 6.33249 31.8692L6.40733 31.7943C6.43888 31.8334 6.4669 31.8751 6.49107 31.9191C6.51081 31.9509 6.523 31.9869 6.52671 32.0242C6.52675 32.049 6.5193 32.0732 6.50533 32.0937C6.4861 32.1227 6.46126 32.1475 6.43227 32.1667C6.35598 32.2206 6.271 32.261 6.18104 32.2861C5.93655 32.3565 5.67716 32.3565 5.43268 32.2861C5.31741 32.2516 5.21184 32.1906 5.12442 32.1079C5.02884 32.0124 4.95685 31.8959 4.91417 31.7676C4.85936 31.6078 4.83342 31.4394 4.83755 31.2705C4.83399 31.1142 4.86061 30.9587 4.91595 30.8126C4.96304 30.6937 5.03399 30.5858 5.12442 30.4954C5.20759 30.4162 5.30656 30.3555 5.41486 30.3172C5.52406 30.2781 5.6392 30.2582 5.75518 30.2584C5.88365 30.2542 6.01144 30.2786 6.12936 30.3297C6.22746 30.3726 6.31412 30.4379 6.38238 30.5203C6.44836 30.6019 6.49743 30.6958 6.52671 30.7965C6.5589 30.9022 6.57453 31.0122 6.57303 31.1226V31.242C6.57302 31.2808 6.56944 31.3196 6.56234 31.3578L5.21173 31.3631ZM6.20955 31.0941C6.20997 31.0233 6.2022 30.9528 6.18638 30.8838C6.17306 30.8196 6.14635 30.7589 6.10798 30.7057C6.06917 30.6557 6.01827 30.6165 5.96009 30.5916C5.88976 30.5616 5.81381 30.547 5.73737 30.5489C5.66982 30.5466 5.60253 30.5581 5.53959 30.5827C5.47728 30.6078 5.42041 30.6447 5.37209 30.6914C5.27256 30.7995 5.21559 30.9401 5.21173 31.087L6.20955 31.0941ZM7.10045 30.7502C7.0772 30.7132 7.05808 30.6738 7.04343 30.6326C7.02965 30.6004 7.02181 30.566 7.02027 30.531C7.02198 30.5093 7.02936 30.4884 7.04165 30.4705C7.05298 30.4523 7.06898 30.4375 7.08798 30.4277C7.14304 30.3909 7.20303 30.3621 7.26616 30.3422C7.34444 30.3155 7.42494 30.2958 7.5067 30.2834C7.59201 30.2681 7.67841 30.2597 7.76507 30.2584C7.88551 30.2558 8.00566 30.2714 8.12143 30.3047C8.20947 30.3312 8.28964 30.3789 8.35484 30.4437C8.41622 30.5081 8.45981 30.5873 8.48135 30.6736C8.50648 30.778 8.51845 30.8851 8.51699 30.9925V31.8193C8.51256 31.8721 8.51256 31.9251 8.51699 31.9779C8.51875 32.0084 8.52996 32.0377 8.54906 32.0616C8.56584 32.0794 8.58755 32.0918 8.61142 32.0972C8.64638 32.1008 8.6816 32.1008 8.71655 32.0972V32.2647C8.68598 32.2754 8.6543 32.2826 8.62212 32.2861C8.58436 32.2917 8.54625 32.2947 8.50808 32.295C8.43637 32.2975 8.36505 32.2835 8.29961 32.254C8.2659 32.2363 8.23759 32.2099 8.21765 32.1774C8.19764 32.1452 8.186 32.1084 8.18379 32.0705C8.10937 32.1437 8.02325 32.2039 7.92899 32.2487C7.8054 32.3019 7.67147 32.3269 7.53699 32.3218C7.46148 32.3216 7.3862 32.3132 7.31249 32.2968C7.23875 32.2807 7.16905 32.2497 7.10758 32.2059C7.0441 32.1589 6.99228 32.098 6.95612 32.0278C6.91286 31.9379 6.89265 31.8387 6.89732 31.7391C6.89145 31.6108 6.93122 31.4845 7.00958 31.3827C7.086 31.2902 7.1822 31.2159 7.2911 31.1654C7.40394 31.1115 7.52397 31.0743 7.64747 31.0549C7.76192 31.0371 7.87736 31.0264 7.99314 31.0228H8.08401C8.11368 31.021 8.14343 31.021 8.1731 31.0228V30.9605C8.17994 30.8557 8.14611 30.7523 8.07866 30.6718C8.02876 30.6326 7.97154 30.6038 7.91035 30.5869C7.84916 30.5701 7.78523 30.5656 7.7223 30.5738C7.61234 30.5704 7.50263 30.5861 7.39801 30.6201C7.30744 30.6522 7.2217 30.6966 7.14321 30.752L7.10045 30.7502ZM8.16954 31.2847H8.04481C7.95252 31.2847 7.8603 31.2901 7.76863 31.3008C7.68073 31.3112 7.5945 31.3327 7.51205 31.3649C7.44381 31.3946 7.38297 31.4391 7.33387 31.495C7.28443 31.555 7.25904 31.6312 7.2626 31.7088C7.26065 31.7898 7.28784 31.8689 7.33921 31.9315C7.37684 31.9674 7.42186 31.9946 7.4711 32.0112C7.52035 32.0278 7.57264 32.0335 7.6243 32.0278C7.69561 32.0278 7.76651 32.017 7.83456 31.9957C7.89675 31.9772 7.95655 31.9515 8.01274 31.9191C8.05821 31.8918 8.0991 31.8575 8.1339 31.8175C8.16017 31.789 8.17643 31.7527 8.18023 31.7142L8.16954 31.2847ZM9.12815 29.3034C9.14417 29.3025 9.16023 29.3025 9.17626 29.3034H9.20477C9.27905 29.2999 9.35221 29.3226 9.41146 29.3675C9.44114 29.3959 9.46383 29.4308 9.47775 29.4694C9.49166 29.5081 9.49641 29.5494 9.49164 29.5902V31.8906C9.4896 31.9262 9.4896 31.9619 9.49164 31.9975C9.49281 32.0234 9.5008 32.0486 9.5148 32.0705C9.52882 32.0916 9.54954 32.1073 9.5736 32.1151C9.61164 32.1268 9.65147 32.1316 9.6912 32.1293V32.279C9.65759 32.2897 9.62295 32.2969 9.58786 32.3004C9.54472 32.3059 9.50128 32.3089 9.45778 32.3093C9.39209 32.3132 9.32649 32.3003 9.26713 32.2719C9.22518 32.2484 9.19109 32.2131 9.16913 32.1703C9.14778 32.1268 9.13507 32.0796 9.13171 32.0313C9.12909 31.9809 9.12909 31.9303 9.13171 31.8799L9.12815 29.3034ZM10.1099 29.7025H10.158H10.1883C10.2625 29.6996 10.3355 29.7222 10.395 29.7666C10.4241 29.7954 10.4462 29.8304 10.4598 29.869C10.4733 29.9076 10.478 29.9487 10.4734 29.9894V30.3119H11.1077V30.613H10.4716V31.6963C10.4716 31.9262 10.5643 32.042 10.7496 32.042C10.7934 32.0416 10.8367 32.0337 10.8779 32.0188C10.9157 32.0037 10.952 31.9852 10.9866 31.9636C11.0146 31.946 11.0409 31.9257 11.065 31.903C11.0793 31.8905 11.0919 31.8761 11.1024 31.8603C11.1347 31.8989 11.1639 31.94 11.1897 31.9832C11.2128 32.0162 11.2259 32.0552 11.2271 32.0955C11.2245 32.1267 11.2105 32.1558 11.1879 32.1774C11.1576 32.211 11.1213 32.2388 11.081 32.2594C11.0285 32.2883 10.9721 32.3093 10.9135 32.3218C10.8418 32.3395 10.7682 32.3485 10.6944 32.3485C10.5701 32.3547 10.4465 32.3256 10.338 32.2647C10.2522 32.2098 10.1865 32.1285 10.1509 32.0331C10.1305 31.9757 10.1185 31.9157 10.1153 31.8549C10.1153 31.7926 10.1153 31.7302 10.1153 31.6678L10.1099 29.7025ZM11.5942 29.3034C11.6102 29.3025 11.6263 29.3025 11.6423 29.3034H11.6708C11.7445 29.3001 11.817 29.3228 11.8757 29.3675C11.9028 29.3958 11.9236 29.4294 11.9368 29.4662C11.95 29.5031 11.9553 29.5423 11.9523 29.5813V30.5025C12.03 30.4216 12.1259 30.3605 12.2321 30.3243C12.3462 30.2824 12.4668 30.2607 12.5884 30.2602C12.7515 30.2493 12.9132 30.2966 13.0446 30.3938C13.1433 30.4718 13.2134 30.5801 13.2441 30.7021C13.258 30.7606 13.267 30.8202 13.2709 30.8803C13.2709 30.948 13.2709 31.0157 13.2709 31.0781V32.2719H12.9145V31.0923C12.9145 31.0389 12.9145 30.989 12.9145 30.9391C12.9139 30.8924 12.9061 30.8461 12.8913 30.8019C12.8734 30.7323 12.8294 30.6724 12.7684 30.6344C12.6829 30.5895 12.5869 30.5685 12.4904 30.5738C12.4158 30.5734 12.3415 30.583 12.2695 30.6023C12.2104 30.6183 12.1535 30.6417 12.1002 30.6718C12.0578 30.6961 12.0208 30.7288 11.9915 30.768C11.9674 30.7991 11.9542 30.8373 11.9541 30.8767V32.2701H11.5906L11.5942 29.3034ZM16.038 29.9234C15.9656 29.8709 15.8865 29.8284 15.8028 29.7969C15.6941 29.7561 15.5786 29.7362 15.4625 29.7381C15.378 29.7365 15.2937 29.7485 15.213 29.7738C15.1532 29.7932 15.098 29.8247 15.0509 29.8664C15.0103 29.9034 14.9797 29.95 14.9618 30.0018C14.9426 30.0519 14.9329 30.1051 14.9333 30.1586C14.9318 30.2207 14.9465 30.2822 14.976 30.3368C15.0068 30.3898 15.0488 30.4354 15.099 30.4705C15.1611 30.5113 15.2274 30.5454 15.2968 30.572C15.3734 30.6023 15.4607 30.6344 15.5605 30.6647C15.6566 30.6954 15.7506 30.7323 15.842 30.7751C15.9292 30.8162 16.0092 30.8709 16.079 30.9373C16.1535 31.0067 16.2122 31.0913 16.2512 31.1854C16.2903 31.2794 16.3087 31.3808 16.3053 31.4825C16.3083 31.609 16.2846 31.7347 16.2358 31.8514C16.1912 31.955 16.1236 32.047 16.038 32.1204C15.9484 32.1949 15.8448 32.2506 15.7333 32.2843C15.6066 32.3214 15.4751 32.34 15.3431 32.3396C15.1954 32.3402 15.0482 32.3229 14.9048 32.2879C14.7915 32.2641 14.6838 32.2187 14.5876 32.1543C14.5579 32.1399 14.5324 32.1181 14.5137 32.0909C14.4949 32.0637 14.4836 32.0321 14.4807 31.9993C14.4845 31.9575 14.4979 31.9173 14.5199 31.8817C14.5452 31.8338 14.575 31.7884 14.609 31.7462C14.7093 31.8246 14.8195 31.8893 14.9368 31.9387C15.0662 31.9925 15.2048 32.0203 15.3449 32.0206C15.4387 32.0224 15.5322 32.0079 15.6211 31.9779C15.6876 31.9549 15.7484 31.9178 15.7992 31.8692C15.8426 31.8261 15.8755 31.7737 15.8955 31.7159C15.9151 31.6586 15.9253 31.5984 15.9258 31.5378C15.9273 31.4672 15.9152 31.397 15.8901 31.3311C15.8653 31.2753 15.8289 31.2255 15.7832 31.185C15.7302 31.1388 15.67 31.1015 15.605 31.0745C15.5254 31.0391 15.4439 31.0082 15.3609 30.9818C15.2583 30.9525 15.1572 30.918 15.058 30.8785C14.9653 30.8436 14.8787 30.7943 14.8014 30.7324C14.7271 30.6721 14.6664 30.5968 14.6233 30.5114C14.575 30.411 14.5518 30.3003 14.5555 30.1889C14.5527 30.074 14.5765 29.96 14.625 29.8557C14.6699 29.7614 14.7357 29.6785 14.8175 29.6134C14.9032 29.5474 15.0005 29.4978 15.1043 29.4673C15.2201 29.4335 15.3401 29.4167 15.4607 29.4174C15.5746 29.418 15.6882 29.4312 15.7992 29.4566C15.9076 29.4781 16.0118 29.5172 16.1075 29.5724C16.1498 29.5977 16.1887 29.6282 16.2233 29.6633C16.2381 29.678 16.2498 29.6955 16.2578 29.7148C16.2657 29.734 16.2698 29.7547 16.2696 29.7756C16.2676 29.8152 16.2533 29.8532 16.2287 29.8842C16.1999 29.927 16.1664 29.9665 16.1289 30.0018L16.0897 29.9662C16.0772 29.9484 16.054 29.9377 16.038 29.9217V29.9234ZM17.2639 32.2736H17.1196L16.43 30.3261C16.4899 30.3041 16.5532 30.2927 16.6171 30.2923C16.65 30.2905 16.6828 30.296 16.7133 30.3083C16.7441 30.3193 16.7721 30.3369 16.7953 30.36C16.8442 30.4097 16.8798 30.471 16.8986 30.5382L17.3655 31.9636L17.8341 30.5702C17.8435 30.5387 17.8548 30.5078 17.8679 30.4776C17.8824 30.4437 17.9022 30.4124 17.9267 30.3849C17.951 30.3572 17.9807 30.3348 18.014 30.319C18.0526 30.3012 18.0945 30.292 18.137 30.2923C18.1923 30.2919 18.2468 30.3054 18.2956 30.3315L17.5187 32.5516C17.4866 32.6407 17.4528 32.7298 17.4153 32.8064C17.3817 32.8838 17.336 32.9554 17.2799 33.0184C17.2242 33.0804 17.1563 33.1302 17.0804 33.1646C16.9909 33.2028 16.8943 33.221 16.7971 33.218C16.7053 33.2212 16.6138 33.2061 16.528 33.1735C16.4973 33.1637 16.4703 33.1449 16.4505 33.1194C16.4308 33.094 16.4193 33.0631 16.4175 33.0309C16.4191 32.9881 16.43 32.9461 16.4496 32.908C16.4688 32.8701 16.4908 32.8338 16.5155 32.7993C16.5483 32.8257 16.5835 32.849 16.6207 32.8688C16.6754 32.8977 16.737 32.9113 16.7988 32.908C16.8449 32.91 16.8907 32.9008 16.9325 32.8812C16.9747 32.863 17.012 32.8349 17.0412 32.7993C17.1158 32.6979 17.1713 32.5838 17.2051 32.4625L17.2639 32.2736ZM19.7281 30.7662C19.67 30.7009 19.5982 30.6492 19.5179 30.6148C19.4244 30.5706 19.3219 30.5487 19.2185 30.5506C19.1782 30.548 19.1377 30.548 19.0974 30.5506C19.0549 30.5583 19.0135 30.5715 18.9744 30.5898C18.9369 30.6077 18.904 30.6339 18.8782 30.6665C18.8523 30.7035 18.8386 30.7477 18.839 30.793C18.8387 30.8333 18.8498 30.8728 18.8711 30.907C18.8957 30.9391 18.9266 30.9658 18.962 30.9854C19.0036 31.0106 19.0486 31.0298 19.0956 31.0424L19.2613 31.0887C19.3451 31.1085 19.4278 31.1329 19.509 31.1618C19.5844 31.1902 19.6557 31.2285 19.721 31.2758C19.7825 31.323 19.832 31.384 19.8653 31.454C19.9025 31.5356 19.9207 31.6245 19.9188 31.7142C19.9209 31.8084 19.8988 31.9017 19.8546 31.985C19.8099 32.0613 19.7491 32.127 19.6765 32.1774C19.6018 32.2325 19.517 32.2724 19.427 32.295C19.3307 32.322 19.2312 32.3358 19.1312 32.336C19.041 32.3363 18.951 32.3286 18.8622 32.3128C18.7964 32.2991 18.732 32.2794 18.6697 32.254C18.6149 32.2352 18.5641 32.2062 18.5201 32.1685C18.5074 32.1562 18.4972 32.1417 18.4898 32.1258C18.4821 32.1102 18.4778 32.0932 18.4773 32.0759C18.4785 32.036 18.4889 31.997 18.5076 31.9618C18.5272 31.9226 18.5539 31.8781 18.5842 31.8282C18.6107 31.8503 18.6387 31.8705 18.668 31.8888C18.7083 31.9157 18.7506 31.9395 18.7945 31.9601C18.8472 31.9846 18.9021 32.0043 18.9584 32.0188C19.0213 32.0344 19.086 32.0422 19.1508 32.042C19.201 32.0417 19.2511 32.0369 19.3005 32.0278C19.3459 32.0188 19.3897 32.0032 19.4306 31.9814C19.4679 31.9609 19.5001 31.9323 19.525 31.8977C19.5515 31.853 19.5645 31.8017 19.5624 31.7498C19.5636 31.6989 19.5499 31.6488 19.5232 31.6055C19.4966 31.5675 19.4619 31.5359 19.4217 31.5128C19.3769 31.4879 19.3297 31.4677 19.2809 31.4522C19.2274 31.438 19.174 31.4237 19.1205 31.413C19.0405 31.3973 18.9619 31.3753 18.8853 31.3471C18.8129 31.3225 18.7449 31.2864 18.684 31.2402C18.6211 31.1936 18.5703 31.1324 18.5361 31.062C18.5022 30.9909 18.4863 30.9126 18.4898 30.8339C18.488 30.7504 18.5075 30.6678 18.5465 30.594C18.5854 30.5201 18.6426 30.4573 18.7125 30.4117C18.7837 30.3634 18.8626 30.3279 18.9459 30.3065C19.0339 30.2814 19.1252 30.2694 19.2168 30.2709C19.3164 30.2687 19.4159 30.2801 19.5125 30.3047C19.5876 30.321 19.6602 30.3473 19.7281 30.3831C19.7723 30.404 19.8117 30.4337 19.844 30.4705C19.8622 30.4918 19.8723 30.519 19.8725 30.5471C19.872 30.5839 19.8641 30.6203 19.8493 30.654C19.8343 30.6956 19.8152 30.7355 19.7923 30.7734L19.7281 30.7662ZM20.325 29.6972H20.3714H20.3999C20.474 29.693 20.5472 29.7151 20.6066 29.7595C20.6359 29.7881 20.6583 29.823 20.6719 29.8617C20.6855 29.9003 20.69 29.9416 20.685 29.9822V30.3047H21.3211V30.6077H20.685V31.691C20.685 31.9191 20.7776 32.0349 20.9629 32.0349C21.0062 32.0351 21.0491 32.0273 21.0894 32.0117C21.1279 31.998 21.1644 31.9794 21.1981 31.9565C21.2267 31.9389 21.2535 31.9186 21.2783 31.8959C21.2921 31.8829 21.3047 31.8686 21.3157 31.8531C21.3474 31.8922 21.3766 31.9333 21.403 31.9761C21.4259 32.0091 21.4384 32.0482 21.4387 32.0883C21.4367 32.1193 21.4234 32.1485 21.4013 32.1703C21.3712 32.2042 21.3349 32.232 21.2943 32.2523C21.2414 32.2806 21.1852 32.3022 21.1269 32.3164C21.0551 32.3335 20.9815 32.3419 20.9077 32.3414C20.7834 32.3475 20.6599 32.3185 20.5513 32.2576C20.4679 32.2023 20.4052 32.1208 20.3732 32.026C20.3513 31.9689 20.3387 31.9088 20.3357 31.8478C20.3357 31.7837 20.3357 31.7213 20.3357 31.6607L20.325 29.6972ZM22.0195 31.3631C22.0195 31.541 22.077 31.7142 22.1835 31.8567C22.2425 31.9206 22.3155 31.9699 22.3969 32.0008C22.4782 32.0317 22.5655 32.0434 22.6521 32.0349C22.7236 32.0349 22.7948 32.0259 22.8641 32.0082C22.9206 31.9952 22.9751 31.9748 23.0263 31.9476C23.0677 31.9275 23.1061 31.9017 23.1403 31.871C23.1666 31.8468 23.1916 31.8212 23.2151 31.7943C23.2457 31.8343 23.2731 31.8766 23.2971 31.9209C23.3174 31.9526 23.3301 31.9886 23.3345 32.026C23.3329 32.0505 23.3256 32.0743 23.3131 32.0955C23.2934 32.1241 23.2687 32.1488 23.2401 32.1685C23.1636 32.2221 23.0787 32.2624 22.9888 32.2879C22.7444 32.3583 22.485 32.3583 22.2405 32.2879C22.125 32.2528 22.019 32.1918 21.9305 32.1097C21.8368 32.0171 21.7655 31.9044 21.722 31.7801C21.6664 31.6204 21.6404 31.452 21.6454 31.283C21.6418 31.1267 21.6684 30.9712 21.7238 30.825C21.7698 30.7061 21.8402 30.598 21.9305 30.5079C22.0138 30.428 22.1135 30.3672 22.2227 30.3297C22.3312 30.2901 22.4457 30.2696 22.5612 30.2691C22.6898 30.2662 22.8174 30.2911 22.9354 30.3422C23.0338 30.3846 23.1205 30.45 23.1884 30.5328C23.2553 30.6141 23.305 30.708 23.3345 30.809C23.3651 30.915 23.3807 31.0248 23.3808 31.1351V31.2545C23.3808 31.2937 23.3808 31.3311 23.3702 31.3703L22.0195 31.3631ZM23.0174 31.0959C23.0178 31.0251 23.01 30.9546 22.9942 30.8856C22.9802 30.8213 22.9529 30.7606 22.914 30.7074C22.8759 30.6576 22.8256 30.6183 22.7679 30.5934C22.697 30.5631 22.6204 30.5485 22.5434 30.5506C22.4759 30.5484 22.4086 30.5599 22.3456 30.5845C22.2833 30.6096 22.2264 30.6465 22.1781 30.6932C22.0784 30.801 22.0219 30.9419 22.0195 31.0887L23.0174 31.0959ZM23.837 30.2941H23.8904H23.919C23.9824 30.2915 24.0449 30.3096 24.0971 30.3457C24.1218 30.3655 24.1423 30.39 24.1573 30.4179C24.1723 30.4458 24.1815 30.4764 24.1844 30.5079C24.2593 30.4337 24.3468 30.3733 24.4428 30.3297C24.6118 30.26 24.7972 30.2396 24.9773 30.2709C25.0309 30.2817 25.0833 30.2972 25.1341 30.3172C25.1847 30.3378 25.2321 30.3654 25.2749 30.3992C25.3172 30.4319 25.3529 30.4724 25.38 30.5186C25.4562 30.4426 25.5464 30.3821 25.6455 30.3404C25.7673 30.2868 25.8992 30.2601 26.0322 30.262C26.1869 30.2522 26.3401 30.297 26.4652 30.3885C26.5628 30.4687 26.631 30.579 26.6594 30.7021C26.6732 30.7606 26.6816 30.8202 26.6843 30.8803C26.6843 30.9498 26.6843 31.0157 26.6843 31.0798V32.2736H26.328V30.9391C26.3265 30.8925 26.3187 30.8463 26.3048 30.8019C26.2871 30.7332 26.2445 30.6735 26.1854 30.6344C26.0991 30.5883 26.0015 30.5673 25.9039 30.5738C25.8131 30.5733 25.7234 30.594 25.642 30.6344C25.5745 30.6646 25.5138 30.7082 25.4638 30.7627C25.4638 30.809 25.4745 30.8607 25.478 30.9123C25.4816 30.964 25.478 31.0193 25.478 31.0745V32.2736H25.1217V31.0923C25.1217 31.0371 25.1217 30.9818 25.1128 30.9266C25.108 30.8799 25.0978 30.8338 25.0825 30.7894C25.0344 30.6486 24.9043 30.5791 24.6994 30.5791C24.5807 30.5783 24.4641 30.6104 24.3626 30.6718C24.3205 30.6951 24.2831 30.7259 24.2522 30.7627C24.2261 30.791 24.2109 30.8276 24.2094 30.866V32.2736H23.853L23.837 30.2941Z" fill="#002E6D"/>
<path d="M34.0611 10.8385V9.09763C34.0601 8.94385 34.0136 8.79381 33.9275 8.66643C33.8398 8.53677 33.7158 8.43577 33.5711 8.376L31.8535 7.57062C31.7663 7.52916 31.6813 7.48337 31.5987 7.43342C31.5812 7.42166 31.5609 7.41489 31.5399 7.41382C31.5188 7.41387 31.4981 7.41874 31.4793 7.42807C31.4606 7.43843 31.4448 7.45309 31.433 7.47084C31.4225 7.48869 31.417 7.50897 31.4169 7.52964V10.7921C31.4063 10.94 31.4412 11.0877 31.517 11.2151C31.5928 11.3425 31.7059 11.4437 31.841 11.5049C32.1012 11.2779 32.4164 11.1231 32.7551 11.0558L34.0611 10.8385Z" fill="#EA0029"/>
<path d="M31.4221 13.4008V12.394C31.4175 12.1743 31.4914 11.9601 31.6306 11.79C31.2579 11.6329 30.8495 11.5806 30.4492 11.6385L27.4398 12.1464C27.4141 12.1499 27.3903 12.1618 27.3721 12.1802C27.3542 12.1989 27.3424 12.2225 27.3382 12.2479C27.3348 12.2737 27.3398 12.3 27.3525 12.3228C27.3654 12.3446 27.3846 12.362 27.4077 12.3726L29.6492 13.4239C29.9381 13.5547 30.2593 13.5968 30.5722 13.5451L31.4221 13.4008Z" fill="#0075C9"/>
<path d="M37.8063 11.9111L35.5612 10.8599C35.2721 10.7297 34.9509 10.6882 34.6382 10.7405L34.0573 10.8367V11.4889C34.065 11.8204 33.9935 12.149 33.8489 12.4475C34.3086 12.6648 34.4048 12.7076 35.0284 12.5989L37.7706 12.1374C37.7967 12.1336 37.821 12.1217 37.8401 12.1036C37.8577 12.085 37.8689 12.0613 37.8722 12.0359C37.8765 12.01 37.8714 11.9835 37.8579 11.961C37.8464 11.9393 37.8284 11.9219 37.8063 11.9111Z" fill="#00A7E1"/>
<path d="M34.0628 13.4506C34.0724 13.3029 34.037 13.1557 33.9613 13.0285C33.8856 12.9012 33.7731 12.7999 33.6387 12.7379C33.3787 12.9655 33.0635 13.121 32.7246 13.1887L31.4221 13.4079V15.1469C31.4222 15.3011 31.4681 15.4518 31.554 15.5799C31.642 15.7089 31.7659 15.8093 31.9103 15.8686L33.6262 16.6739C33.7136 16.7157 33.7986 16.7621 33.881 16.8129C33.8986 16.8241 33.9189 16.8303 33.9398 16.8307C33.9609 16.8315 33.9818 16.8266 34.0004 16.8165C34.0194 16.8066 34.0354 16.7919 34.0467 16.7737C34.0574 16.756 34.0629 16.7356 34.0628 16.7149V13.4506Z" fill="#E87200"/>
<path d="M31.4221 13.4007V12.3957C31.4172 12.1754 31.4911 11.9606 31.6306 11.7899L33.6387 12.7325C33.3789 12.9615 33.0638 13.1188 32.7246 13.1886L31.4221 13.4007Z" fill="#002E6D"/>
<path d="M34.0611 10.8367V11.4888C34.0687 11.8204 33.9972 12.149 33.8526 12.4474L31.8445 11.5048C32.1041 11.276 32.4193 11.1193 32.7586 11.0505L34.0611 10.8367Z" fill="#002E6D"/>
</svg>
