<svg width="40" height="40" viewBox="0 0 40 40" fill="none" xmlns="http://www.w3.org/2000/svg">
<path d="M18.1419 26.8904V26.4103H16.9003V26.9453H17.5042V27.0705C17.5122 27.2303 17.4594 27.3873 17.3564 27.5097C17.2976 27.5708 17.2266 27.6188 17.148 27.6506C17.0694 27.6824 16.985 27.6972 16.9003 27.6941C16.8234 27.6973 16.7467 27.6836 16.6757 27.6539C16.6047 27.6242 16.5411 27.5793 16.4893 27.5224C16.364 27.3816 16.3316 27.2268 16.3316 26.5947C16.3316 25.9627 16.364 25.8107 16.4893 25.6713C16.541 25.614 16.6045 25.5686 16.6755 25.5382C16.7464 25.5078 16.8231 25.4932 16.9003 25.4954C17.2283 25.4954 17.4169 25.7473 17.4915 26.0584H18.1376C18.049 25.5052 17.6619 24.9323 16.9003 24.9323C16.7356 24.928 16.5719 24.9578 16.4192 25.0198C16.2666 25.0818 16.1285 25.1747 16.0135 25.2927C15.6813 25.6249 15.6897 26.0359 15.6897 26.6032C15.6897 27.1705 15.6813 27.5815 16.0135 27.9151C16.1292 28.0321 16.2675 28.1242 16.4199 28.1859C16.5724 28.2477 16.7359 28.2776 16.9003 28.2741C17.0725 28.2808 17.2441 28.251 17.404 28.1867C17.5639 28.1224 17.7083 28.0251 17.828 27.9011C18.0588 27.6603 18.1419 27.3746 18.1419 26.8988V26.8904ZM20.2421 26.0922C20.17 26.0165 20.0823 25.9574 19.9851 25.919C19.8878 25.8806 19.7834 25.8638 19.679 25.8698C19.5605 25.8661 19.4427 25.8896 19.3347 25.9384C19.2266 25.9872 19.1311 26.06 19.0554 26.1513V25.8979H18.5937V28.2389H19.0639V26.8172C19.0577 26.7514 19.0651 26.6851 19.0856 26.6224C19.1061 26.5596 19.1393 26.5017 19.1832 26.4524C19.227 26.403 19.2805 26.3632 19.3404 26.3353C19.4003 26.3075 19.4652 26.2923 19.5312 26.2907C19.5977 26.2884 19.6638 26.3013 19.7245 26.3284C19.7853 26.3554 19.839 26.396 19.8817 26.4469L20.2365 26.0922H20.2421ZM22.2269 27.0663C22.2269 26.6736 22.172 26.378 21.9454 26.1471C21.7561 25.9688 21.5058 25.8696 21.2458 25.8696C20.9857 25.8696 20.7355 25.9688 20.5462 26.1471C20.3252 26.378 20.2646 26.6736 20.2646 27.0663C20.2646 27.459 20.3195 27.7589 20.5462 27.9897C20.736 28.1671 20.986 28.2657 21.2458 28.2657C21.5055 28.2657 21.7556 28.1671 21.9454 27.9897C22.1678 27.7589 22.2269 27.4633 22.2269 27.0663ZM21.7554 27.0663C21.7554 27.3197 21.7371 27.5646 21.5949 27.7082C21.5494 27.7534 21.4953 27.7892 21.4359 27.8134C21.3764 27.8375 21.3128 27.8496 21.2486 27.849C21.185 27.8499 21.1219 27.8378 21.0631 27.8136C21.0043 27.7894 20.9511 27.7536 20.9065 27.7082C20.7658 27.5674 20.7446 27.3197 20.7446 27.0663C20.7446 26.8129 20.77 26.5624 20.9108 26.4216C20.9556 26.3771 21.0091 26.3423 21.0679 26.3193C21.1268 26.2963 21.1897 26.2856 21.2528 26.2879C21.3165 26.2858 21.38 26.2966 21.4395 26.3196C21.499 26.3425 21.5533 26.3772 21.5991 26.4216C21.7399 26.5624 21.7596 26.8087 21.7596 27.0635L21.7554 27.0663ZM24.4623 28.2389V25.8979H23.9907V27.3239C23.9907 27.6843 23.7697 27.8462 23.5065 27.8462C23.2433 27.8462 23.0349 27.6885 23.0349 27.3239V25.8979H22.5648V27.3943C22.5555 27.5147 22.5716 27.6356 22.6121 27.7494C22.6526 27.8631 22.7166 27.9671 22.7998 28.0545C22.957 28.198 23.1643 28.2739 23.377 28.2656C23.4934 28.2673 23.6088 28.2449 23.7161 28.1999C23.8234 28.1548 23.9203 28.0881 24.0006 28.0038V28.2389H24.4623ZM26.8483 27.0663C26.8483 26.7102 26.8215 26.3132 26.5851 26.0809C26.429 25.9397 26.2239 25.865 26.0135 25.8726C25.8951 25.8649 25.7766 25.8866 25.6685 25.9357C25.5605 25.9848 25.4662 26.0598 25.3942 26.1541V25.905H24.9325V29.1919H25.404V27.9982C25.4773 28.0888 25.5713 28.1604 25.6782 28.207C25.785 28.2536 25.9015 28.2737 26.0178 28.2656C26.2252 28.2727 26.4273 28.1984 26.5808 28.0587C26.8173 27.8236 26.8441 27.421 26.8441 27.0663H26.8483ZM26.3781 27.0663C26.3781 27.4816 26.3176 27.8462 25.8925 27.8462C25.4674 27.8462 25.404 27.4816 25.404 27.0663C25.404 26.651 25.4688 26.2907 25.8925 26.2907C26.3162 26.2907 26.3781 26.6496 26.3781 27.0663Z" fill="#27348B"/>
<path d="M18.1966 23.9595V20.6726H17.5547V22.0155H16.4427V20.6726H15.8008V23.9595H16.4427V22.5828H17.5547V23.9595H18.1966ZM20.6291 22.9249V22.7165C20.6291 22.0521 20.2645 21.5904 19.6367 21.5904C19.037 21.5904 18.6443 22.0296 18.6443 22.7869C18.6443 23.678 19.1102 23.9877 19.6972 23.9877C19.8615 23.9962 20.0255 23.9678 20.1773 23.9045C20.3291 23.8411 20.4647 23.7445 20.5742 23.6217L20.2743 23.3401C20.2047 23.4201 20.1179 23.4833 20.0204 23.5249C19.9229 23.5666 19.8172 23.5857 19.7113 23.5808C19.3284 23.5808 19.1158 23.3261 19.1158 22.9249H20.6291ZM20.1631 22.5969H19.1102C19.1061 22.4876 19.1268 22.3789 19.1707 22.2788C19.2094 22.1881 19.2746 22.1114 19.3578 22.0586C19.441 22.0058 19.5382 21.9795 19.6367 21.9831C19.8577 21.9831 20.0252 22.183 20.0984 22.359C20.1441 22.4297 20.1667 22.5128 20.1631 22.5969ZM22.6054 23.9595V22.3942C22.6054 21.8635 22.2817 21.5904 21.6398 21.5904C21.2527 21.5904 21.0218 21.6692 20.7952 21.9282L21.1035 22.2182C21.1608 22.1382 21.2386 22.075 21.3288 22.0354C21.4189 21.9958 21.5181 21.9811 21.6159 21.993C21.9804 21.993 22.1282 22.1338 22.1282 22.4308V22.5969H21.5103C20.9754 22.5969 20.7023 22.8784 20.7023 23.2712C20.6967 23.4566 20.7628 23.637 20.8867 23.7751C20.9712 23.8517 21.0705 23.91 21.1785 23.9466C21.2865 23.9832 21.4009 23.9971 21.5145 23.9877C21.6317 23.9986 21.7498 23.9826 21.8598 23.9409C21.9699 23.8992 22.0689 23.8328 22.1494 23.747V23.9595H22.6054ZM22.1339 23.1149C22.1415 23.1769 22.1369 23.2397 22.1202 23.2998C22.1036 23.36 22.0752 23.4163 22.0367 23.4654C21.9772 23.5171 21.9075 23.5557 21.8321 23.5788C21.7566 23.6018 21.6772 23.6088 21.599 23.5991C21.3033 23.5991 21.1767 23.4781 21.1767 23.2655C21.1767 23.053 21.3174 22.9291 21.599 22.9291H22.1479V23.1191L22.1339 23.1149ZM23.9723 23.9595V23.5583H23.7639C23.5753 23.5583 23.5106 23.4654 23.5106 23.2852V20.6726H23.039V23.3134C23.0316 23.3997 23.043 23.4867 23.0726 23.5682C23.1022 23.6496 23.1491 23.7237 23.2102 23.7852C23.2713 23.8467 23.3451 23.8941 23.4264 23.9242C23.5076 23.9543 23.5945 23.9664 23.6809 23.9595H23.9723ZM25.1913 23.9595V23.5583H24.9971C24.961 23.5617 24.9246 23.5568 24.8907 23.5441C24.8567 23.5313 24.8261 23.511 24.8012 23.4847C24.7762 23.4584 24.7576 23.4268 24.7467 23.3923C24.7357 23.3577 24.7328 23.3211 24.7381 23.2852V22.0183H25.1913V21.658H24.7381V20.9471H24.2679V21.658H24.0075V22.0183H24.2749V23.3064C24.2688 23.3927 24.2811 23.4793 24.3111 23.5605C24.341 23.6417 24.3879 23.7156 24.4487 23.7772C24.5094 23.8389 24.5825 23.8869 24.6633 23.9181C24.744 23.9493 24.8304 23.9629 24.9168 23.9581L25.1913 23.9595ZM27.4943 23.9595V22.4491C27.4943 21.9409 27.2043 21.5904 26.682 21.5904C26.5685 21.5889 26.4559 21.6115 26.3517 21.6569C26.2476 21.7023 26.1543 21.7694 26.0782 21.8536V20.6726H25.6122V23.9595H26.0838V22.5237C26.0838 22.1718 26.2949 22.0113 26.5582 22.0113C26.8214 22.0113 27.0297 22.1675 27.0297 22.5237V23.9595H27.4943ZM29.6381 23.654L29.3158 23.3458C29.264 23.4154 29.1964 23.4718 29.1186 23.5102C29.0408 23.5487 28.9549 23.568 28.8681 23.5668C28.7843 23.5692 28.7011 23.5516 28.6254 23.5153C28.5497 23.4791 28.4838 23.4253 28.4332 23.3584C28.3318 23.2303 28.2924 23.0586 28.2924 22.7869C28.2924 22.5152 28.329 22.3477 28.4332 22.2239C28.4841 22.1574 28.5501 22.104 28.6258 22.068C28.7014 22.0321 28.7844 22.0146 28.8681 22.0169C28.955 22.0153 29.041 22.0345 29.1188 22.073C29.1967 22.1114 29.2643 22.168 29.3158 22.2379L29.6381 21.917C29.5429 21.8077 29.4241 21.7215 29.2908 21.6647C29.1574 21.6079 29.0129 21.582 28.8681 21.589C28.3417 21.589 27.8237 21.9085 27.8237 22.7855C27.8237 23.6625 28.3417 23.9863 28.8681 23.9863C29.0134 23.9926 29.1581 23.9658 29.2915 23.908C29.4249 23.8502 29.5434 23.7629 29.6381 23.6526V23.654ZM31.6835 23.9595V22.3942C31.6835 21.8635 31.3611 21.5904 30.7192 21.5904C30.3307 21.5904 30.0999 21.6692 29.8746 21.9282L30.1829 22.2182C30.2405 22.1381 30.3186 22.0749 30.409 22.0352C30.4994 21.9956 30.5987 21.981 30.6967 21.993C31.0613 21.993 31.2091 22.1338 31.2091 22.4308V22.5969H30.5897C30.0548 22.5969 29.7817 22.8784 29.7817 23.2712C29.7762 23.4566 29.8422 23.637 29.9661 23.7751C30.0506 23.8517 30.15 23.91 30.258 23.9466C30.366 23.9832 30.4803 23.9971 30.5939 23.9877C30.7093 23.9969 30.8252 23.98 30.9332 23.9384C31.0411 23.8967 31.1383 23.8313 31.2175 23.747V23.9595H31.6835ZM31.2133 23.1149C31.2265 23.2392 31.19 23.3636 31.112 23.4612C31.0523 23.5131 30.9823 23.5518 30.9066 23.5749C30.8309 23.5979 30.7513 23.6047 30.6728 23.5949C30.3772 23.5949 30.2434 23.4739 30.2434 23.2613C30.2434 23.0487 30.3842 22.9249 30.6657 22.9249H31.2161V23.1149H31.2133ZM33.7753 21.8128C33.703 21.7374 33.6153 21.6784 33.5181 21.64C33.4209 21.6016 33.3165 21.5847 33.2122 21.5904C33.0937 21.5868 32.9759 21.6103 32.8679 21.6591C32.7598 21.7079 32.6643 21.7807 32.5886 21.8719V21.6186H32.1269V23.9595H32.5985V22.5378C32.5923 22.4721 32.5996 22.406 32.6201 22.3433C32.6405 22.2806 32.6736 22.2228 32.7172 22.1735C32.7609 22.1241 32.8143 22.0843 32.874 22.0564C32.9337 22.0285 32.9985 22.0131 33.0644 22.0113C33.1309 22.0087 33.1971 22.0214 33.2579 22.0485C33.3187 22.0756 33.3724 22.1164 33.4149 22.1675L33.771 21.8128H33.7753ZM35.6897 22.9249V22.7165C35.6897 22.0521 35.3251 21.5904 34.7043 21.5904C34.1047 21.5904 33.7119 22.0296 33.7119 22.7869C33.7119 23.678 34.1779 23.9877 34.7649 23.9877C34.9291 23.9964 35.0933 23.9681 35.2451 23.9047C35.3969 23.8414 35.5325 23.7446 35.6418 23.6217L35.342 23.3401C35.2723 23.4201 35.1855 23.4833 35.088 23.5249C34.9905 23.5666 34.8849 23.5857 34.7789 23.5808C34.3961 23.5808 34.1835 23.3261 34.1835 22.9249H35.6897ZM35.2238 22.5969H34.1708C34.1675 22.4877 34.1881 22.3791 34.2314 22.2788C34.27 22.1881 34.3352 22.1114 34.4184 22.0586C34.5016 22.0058 34.5988 21.9795 34.6973 21.9831C34.7952 21.9794 34.892 22.0057 34.9745 22.0585C35.057 22.1114 35.1214 22.1882 35.159 22.2788C35.2044 22.3785 35.2266 22.4873 35.2238 22.5969Z" fill="#27348B"/>
<path d="M18.3177 19.6802V16.3919H17.673V18.4049L16.3709 16.3919H15.8008V19.6802H16.4427V17.6617L17.7448 19.6802H18.3177ZM20.5193 19.6802V18.1163C20.5193 17.5856 20.1969 17.3126 19.555 17.3126C19.1665 17.3126 18.9357 17.3914 18.7104 17.6504L19.0187 17.9404C19.0761 17.86 19.1541 17.7965 19.2445 17.7566C19.3349 17.7167 19.4344 17.7019 19.5325 17.7137C19.8971 17.7137 20.0449 17.8545 20.0449 18.1529V18.319H19.4255C18.8906 18.319 18.6175 18.6006 18.6175 18.9933C18.612 19.1787 18.678 19.3592 18.8019 19.4973C18.8865 19.5736 18.9859 19.6317 19.0939 19.668C19.2019 19.7043 19.3162 19.7181 19.4297 19.7084C19.545 19.7179 19.6609 19.7013 19.7688 19.6599C19.8768 19.6185 19.974 19.5532 20.0533 19.4691V19.6817L20.5193 19.6802ZM20.0491 18.8356C20.0623 18.9599 20.0258 19.0844 19.9478 19.1819C19.8881 19.2338 19.8181 19.2726 19.7424 19.2956C19.6667 19.3186 19.5871 19.3255 19.5086 19.3157C19.213 19.3157 19.0792 19.1946 19.0792 18.982C19.0792 18.7695 19.22 18.6456 19.5015 18.6456H20.0519V18.8356H20.0491ZM22.0382 19.6802V19.2777H21.8453C21.8093 19.2813 21.7729 19.2766 21.739 19.264C21.705 19.2515 21.6744 19.2313 21.6494 19.2051C21.6244 19.1789 21.6058 19.1473 21.5948 19.1128C21.5839 19.0783 21.581 19.0418 21.5863 19.006V17.7391H22.0367V17.3787H21.5863V16.6749H21.1147V17.3787H20.8473V17.7391H21.1147V19.0271C21.1086 19.1134 21.1209 19.2001 21.1509 19.2812C21.1808 19.3624 21.2277 19.4363 21.2884 19.498C21.3492 19.5596 21.4223 19.6076 21.5031 19.6388C21.5838 19.67 21.6702 19.6837 21.7566 19.6788L22.0382 19.6802ZM22.9391 16.8776V16.3793H22.4407V16.8776H22.9391ZM22.925 19.6802V17.3393H22.459V19.6802H22.925ZM25.3307 18.5077C25.3307 18.1149 25.2758 17.8193 25.0491 17.5885C24.8598 17.4102 24.6096 17.3109 24.3495 17.3109C24.0895 17.3109 23.8393 17.4102 23.6499 17.5885C23.4289 17.8193 23.3684 18.1149 23.3684 18.5077C23.3684 18.9004 23.4247 19.2002 23.6499 19.4311C23.8397 19.6084 24.0898 19.7071 24.3495 19.7071C24.6093 19.7071 24.8593 19.6084 25.0491 19.4311C25.2716 19.2002 25.3307 18.9046 25.3307 18.5077ZM24.8591 18.5077C24.8591 18.761 24.8408 19.006 24.6986 19.1496C24.6531 19.1948 24.5991 19.2305 24.5396 19.2547C24.4802 19.2789 24.4165 19.291 24.3524 19.2903C24.2888 19.2912 24.2257 19.2792 24.1669 19.255C24.1081 19.2308 24.0548 19.1949 24.0103 19.1496C23.8695 19.0088 23.8484 18.761 23.8484 18.5077C23.8484 18.2543 23.8667 18.0079 24.0103 17.8658C24.0545 17.82 24.1077 17.7839 24.1666 17.7596C24.2255 17.7354 24.2887 17.7236 24.3524 17.725C24.4166 17.7239 24.4804 17.7358 24.5399 17.76C24.5994 17.7841 24.6534 17.8201 24.6986 17.8658C24.8394 18.0065 24.8591 18.2529 24.8591 18.5077ZM27.6744 19.6802V18.1839C27.6838 18.0635 27.6677 17.9425 27.6272 17.8288C27.5867 17.715 27.5227 17.6111 27.4394 17.5237C27.2824 17.3798 27.0751 17.3035 26.8622 17.3111C26.7457 17.3096 26.6302 17.3323 26.5229 17.3776C26.4156 17.4229 26.3188 17.4899 26.2386 17.5744V17.3393H25.7769V19.6802H26.2597V18.2571C26.2597 17.8967 26.4807 17.7363 26.744 17.7363C27.0072 17.7363 27.2155 17.8925 27.2155 18.2571V19.6845L27.6744 19.6802ZM29.938 19.6802V18.1163C29.938 17.5856 29.6142 17.3126 28.9723 17.3126C28.5852 17.3126 28.3543 17.3914 28.1277 17.6504L28.4374 17.9404C28.4946 17.8601 28.5724 17.7967 28.6625 17.7568C28.7527 17.7169 28.8519 17.702 28.9498 17.7137C29.3144 17.7137 29.4622 17.8545 29.4622 18.1529V18.319H28.8428C28.3079 18.319 28.0348 18.6006 28.0348 18.9933C28.0322 19.1799 28.1024 19.3601 28.2305 19.4958C28.3149 19.5724 28.4143 19.6306 28.5223 19.667C28.6304 19.7033 28.7447 19.7169 28.8583 19.707C28.9735 19.7162 29.0893 19.6995 29.1972 19.6581C29.3051 19.6166 29.4024 19.5516 29.4819 19.4677V19.6802H29.938ZM29.4664 18.8356C29.4796 18.9599 29.4431 19.0844 29.3651 19.1819C29.3053 19.2338 29.2354 19.2726 29.1597 19.2956C29.084 19.3186 29.0044 19.3255 28.9259 19.3157C28.6303 19.3157 28.4965 19.1946 28.4965 18.982C28.4965 18.7695 28.6373 18.6456 28.9188 18.6456H29.4678V18.8356H29.4664ZM31.3963 19.6802V19.2777H31.188C30.9994 19.2777 30.9346 19.1862 30.9346 19.006V16.3919H30.4687V19.0341C30.4612 19.1205 30.4727 19.2074 30.5023 19.2889C30.5319 19.3704 30.5788 19.4444 30.6399 19.5059C30.701 19.5674 30.7747 19.6149 30.856 19.645C30.9373 19.6751 31.0242 19.6871 31.1106 19.6802H31.3963Z" fill="#27348B"/>
<path d="M6.28776 33.8273L5.58822 31.9055H5.35457L4.65503 33.8273H4.96563L5.09714 33.4413H5.85684L5.98836 33.8273H6.28776ZM5.7645 33.1937H5.17269L5.47209 32.3405L5.7645 33.1937ZM7.47698 33.8273V31.9055H7.19716V32.5964C7.15423 32.5435 7.09905 32.5019 7.0364 32.4751C6.97376 32.4483 6.90553 32.4371 6.8376 32.4426C6.71541 32.4382 6.59636 32.4819 6.50602 32.5643C6.36611 32.7041 6.35212 32.9335 6.35212 33.1419C6.35212 33.3504 6.36751 33.5839 6.50602 33.7224C6.5973 33.8051 6.71732 33.8488 6.8404 33.8441C6.9095 33.8491 6.97876 33.8368 7.04198 33.8085C7.10521 33.7802 7.16045 33.7367 7.20276 33.6818V33.8217L7.47698 33.8273ZM7.19716 33.1419C7.19716 33.3853 7.16219 33.5979 6.91735 33.5979C6.67251 33.5979 6.63753 33.3853 6.63753 33.1419C6.63753 32.8986 6.67671 32.6888 6.91735 32.6888C7.15799 32.6888 7.19716 32.8986 7.19716 33.1419ZM8.85788 33.8273V31.9055H8.57806V32.5964C8.53512 32.5435 8.47995 32.5019 8.4173 32.4751C8.35465 32.4483 8.28642 32.4371 8.2185 32.4426C8.0963 32.4382 7.97726 32.4819 7.88691 32.5643C7.74701 32.7041 7.73301 32.9335 7.73301 33.1419C7.73301 33.3504 7.7484 33.5839 7.88691 33.7224C7.97835 33.8048 8.09826 33.8485 8.2213 33.8441C8.2904 33.8491 8.35965 33.8368 8.42288 33.8085C8.48611 33.7802 8.54134 33.7367 8.58366 33.6818V33.8217L8.85788 33.8273ZM8.57806 33.1419C8.57806 33.3853 8.54308 33.5979 8.29824 33.5979C8.0534 33.5979 8.01843 33.3853 8.01843 33.1419C8.01843 32.8986 8.0562 32.6888 8.29824 32.6888C8.54028 32.6888 8.57806 32.8986 8.57806 33.1419ZM9.52104 32.188V31.8971H9.22864V32.188H9.52104ZM9.51265 33.8273V32.4566H9.23283V33.8259L9.51265 33.8273ZM11.0055 33.8273V32.9531C11.0106 32.8825 11.0008 32.8117 10.9767 32.7452C10.9526 32.6787 10.9147 32.618 10.8656 32.5671C10.7734 32.4827 10.6518 32.438 10.527 32.4426C10.459 32.4416 10.3915 32.4547 10.3289 32.4812C10.2663 32.5077 10.2098 32.5469 10.1632 32.5964V32.4566H9.8932V33.8259H10.173V32.9867C10.1681 32.9476 10.1718 32.908 10.1837 32.8704C10.1957 32.8329 10.2157 32.7985 10.2423 32.7695C10.2689 32.7405 10.3016 32.7176 10.3379 32.7024C10.3743 32.6873 10.4135 32.6802 10.4528 32.6818C10.4925 32.6792 10.5321 32.6856 10.569 32.7004C10.6058 32.7152 10.6388 32.7381 10.6657 32.7673C10.6925 32.7966 10.7125 32.8314 10.7241 32.8694C10.7356 32.9074 10.7386 32.9474 10.7327 32.9867V33.8259L11.0055 33.8273ZM12.4213 33.8189V32.4566H12.1541V32.5964C12.1121 32.542 12.0573 32.4987 11.9946 32.4704C11.9319 32.4422 11.8632 32.4297 11.7946 32.4342C11.6731 32.4285 11.5543 32.4713 11.4644 32.5531C11.3329 32.693 11.3105 32.8762 11.3105 33.1126C11.3105 33.349 11.3329 33.5322 11.4644 33.6721C11.5083 33.7129 11.5598 33.7446 11.616 33.7655C11.6721 33.7864 11.7319 33.796 11.7918 33.7937C11.859 33.798 11.9263 33.7859 11.9879 33.7586C12.0495 33.7314 12.1036 33.6897 12.1457 33.6371V33.8133C12.1515 33.8582 12.1474 33.9037 12.1336 33.9468C12.1199 33.9899 12.0969 34.0294 12.0662 34.0626C12.0355 34.0958 11.9979 34.1219 11.9561 34.139C11.9142 34.1561 11.8691 34.1638 11.8239 34.1616C11.7687 34.1638 11.7135 34.1541 11.6624 34.1331C11.6112 34.1121 11.5651 34.0803 11.5273 34.0399L11.351 34.2148C11.4145 34.2772 11.4904 34.3256 11.5738 34.3567C11.6572 34.3878 11.7463 34.4009 11.8351 34.3952C11.9128 34.4005 11.9906 34.3892 12.0635 34.3621C12.1365 34.3351 12.2029 34.2928 12.2583 34.2382C12.3137 34.1836 12.3569 34.1179 12.385 34.0454C12.4131 33.9729 12.4255 33.8952 12.4213 33.8175V33.8189ZM12.1415 33.1196C12.1415 33.3364 12.1121 33.549 11.8617 33.549C11.6113 33.549 11.5819 33.3364 11.5819 33.1196C11.5819 32.9028 11.6141 32.6916 11.8617 32.6916C12.1093 32.6916 12.1415 32.9042 12.1415 33.1196ZM14.4486 32.4566H14.1534L13.8358 33.4217L13.5084 32.4566H13.2174L13.6945 33.7616L13.619 33.9742C13.5784 34.0861 13.5378 34.1141 13.4217 34.1141H13.3517V34.3616H13.4623C13.5132 34.3647 13.5642 34.3574 13.6123 34.3404C13.6603 34.3233 13.7045 34.2968 13.7421 34.2623C13.7877 34.2137 13.8216 34.1553 13.8414 34.0917L14.4486 32.4566ZM15.6882 33.2217V33.1C15.6882 32.7111 15.4741 32.4412 15.1076 32.4412C14.741 32.4412 14.527 32.6971 14.527 33.1405C14.527 33.6609 14.7998 33.8399 15.1426 33.8399C15.2385 33.8452 15.3345 33.8287 15.4232 33.7916C15.5118 33.7546 15.591 33.6979 15.6546 33.6259L15.4797 33.4608C15.439 33.5081 15.3878 33.5453 15.3303 33.5696C15.2728 33.5938 15.2105 33.6045 15.1482 33.6007C14.9229 33.6007 14.7998 33.4525 14.7998 33.2175L15.6882 33.2217ZM15.4154 33.03H14.7998C14.7971 32.9662 14.8091 32.9026 14.8348 32.844C14.8588 32.7923 14.8972 32.7486 14.9452 32.718C14.9933 32.6873 15.0492 32.671 15.1062 32.671C15.1632 32.671 15.219 32.6873 15.2671 32.718C15.3152 32.7486 15.3535 32.7923 15.3776 32.844C15.4037 32.9025 15.4166 32.966 15.4154 33.03ZM17.0061 33.8259V32.9112C17.0061 32.6006 16.8173 32.4412 16.4465 32.4412C16.3547 32.431 16.2619 32.4437 16.1762 32.4781C16.0905 32.5125 16.0147 32.5676 15.9554 32.6384L16.1359 32.8076C16.1695 32.761 16.215 32.7242 16.2677 32.7011C16.3203 32.6779 16.3782 32.6693 16.4353 32.6762C16.6494 32.6762 16.7361 32.7601 16.7361 32.9321V33.03H16.3738C16.0604 33.03 15.9009 33.1951 15.9009 33.4245C15.8976 33.5326 15.9362 33.6379 16.0086 33.7182C16.058 33.7632 16.1162 33.7975 16.1795 33.819C16.2429 33.8404 16.3099 33.8485 16.3766 33.8427C16.444 33.8483 16.5119 33.8387 16.5751 33.8144C16.6383 33.7902 16.6953 33.7521 16.7417 33.7028V33.8273L17.0061 33.8259ZM16.7263 33.3322C16.7336 33.405 16.712 33.4779 16.6662 33.535C16.6314 33.5653 16.5907 33.588 16.5465 33.6015C16.5024 33.615 16.4559 33.619 16.4101 33.6133C16.2366 33.6133 16.1583 33.542 16.1583 33.4189C16.1583 33.2958 16.2422 33.2217 16.4045 33.2217H16.7263V33.3322ZM18.3325 32.5713C18.2908 32.5273 18.24 32.493 18.1837 32.4705C18.1275 32.4481 18.067 32.4381 18.0065 32.4412C17.937 32.4389 17.868 32.4526 17.8047 32.4812C17.7414 32.5098 17.6855 32.5526 17.6413 32.6062V32.4566H17.3713V33.8259H17.6511V32.9951C17.6472 32.9561 17.6515 32.9166 17.6638 32.8794C17.6761 32.8422 17.6961 32.8079 17.7225 32.7789C17.7489 32.7499 17.7811 32.7268 17.817 32.711C17.8529 32.6952 17.8917 32.6872 17.9309 32.6874C17.9699 32.686 18.0086 32.6934 18.0442 32.7092C18.0799 32.7249 18.1114 32.7485 18.1366 32.7783L18.3437 32.5713H18.3325ZM19.4881 33.4105C19.4881 33.1671 19.337 33.0454 19.081 33.0244L18.8641 33.0049C18.7242 32.9923 18.6752 32.9293 18.6752 32.8482C18.6752 32.7671 18.7592 32.6734 18.9243 32.6734C19.0448 32.666 19.1642 32.7012 19.2615 32.7727L19.435 32.5978C19.29 32.4866 19.1094 32.4319 18.9271 32.444C18.6403 32.444 18.4108 32.595 18.4108 32.8636C18.4108 33.1042 18.5591 33.2203 18.8166 33.2412L19.0348 33.2608C19.1677 33.272 19.2181 33.3308 19.2181 33.4231C19.2181 33.5518 19.0866 33.6119 18.9187 33.6119C18.8469 33.6167 18.7748 33.6067 18.707 33.5827C18.6391 33.5586 18.5769 33.521 18.5241 33.472L18.3437 33.6539C18.4205 33.7249 18.5114 33.7791 18.6104 33.8131C18.7094 33.8471 18.8144 33.86 18.9187 33.8511C19.2461 33.8511 19.4881 33.7028 19.4881 33.4161V33.4105ZM21.4468 33.1433C21.4573 33.0475 21.4484 32.9505 21.4205 32.8582C21.3926 32.7659 21.3464 32.6802 21.2845 32.6062C21.1737 32.5021 21.0274 32.4441 20.8753 32.4441C20.7232 32.4441 20.5769 32.5021 20.4661 32.6062C20.3608 32.7661 20.3046 32.9533 20.3046 33.1447C20.3046 33.3362 20.3608 33.5234 20.4661 33.6832C20.5769 33.7874 20.7232 33.8454 20.8753 33.8454C21.0274 33.8454 21.1737 33.7874 21.2845 33.6832C21.3462 33.6084 21.3921 33.5219 21.4195 33.4289C21.4469 33.3358 21.4553 33.2383 21.444 33.1419L21.4468 33.1433ZM21.167 33.1433C21.1838 33.2758 21.1498 33.4097 21.0719 33.5182C21.0179 33.5701 20.946 33.5991 20.8711 33.5991C20.7963 33.5991 20.7243 33.5701 20.6703 33.5182C20.6079 33.4031 20.5752 33.2743 20.5752 33.1433C20.5752 33.0124 20.6079 32.8836 20.6703 32.7685C20.7251 32.7182 20.7967 32.6902 20.8711 32.6902C20.9455 32.6902 21.0171 32.7182 21.0719 32.7685C21.1501 32.8768 21.1841 33.0108 21.167 33.1433ZM22.352 32.6958V32.4845H22.0792V32.2873C22.0761 32.2663 22.0779 32.2448 22.0844 32.2245C22.0908 32.2043 22.1018 32.1857 22.1165 32.1704C22.1312 32.155 22.1492 32.1432 22.1692 32.1358C22.1892 32.1284 22.2106 32.1257 22.2317 32.1279H22.352V31.8971H22.18C22.1295 31.8942 22.0789 31.902 22.0318 31.9202C21.9846 31.9384 21.9418 31.9664 21.9063 32.0024C21.8708 32.0384 21.8434 32.0816 21.8259 32.129C21.8085 32.1765 21.8013 32.2271 21.805 32.2775V32.4887H21.6483V32.6999H21.805V33.8329H22.0848V32.6999L22.352 32.6958ZM24.2912 33.8287V32.9461C24.2912 32.6496 24.1219 32.444 23.8169 32.444C23.7504 32.4431 23.6844 32.4564 23.6234 32.4829C23.5624 32.5094 23.5077 32.5486 23.4629 32.5978V31.9069H23.1831V33.8273H23.4629V32.9881C23.4582 32.9493 23.462 32.91 23.474 32.8728C23.4861 32.8357 23.5062 32.8016 23.5329 32.7731C23.5596 32.7446 23.5922 32.7222 23.6285 32.7076C23.6647 32.6931 23.7037 32.6866 23.7427 32.6888C23.7819 32.6858 23.8213 32.6918 23.8579 32.7061C23.8945 32.7204 23.9275 32.7427 23.9543 32.7715C23.9812 32.8002 24.0012 32.8345 24.013 32.872C24.0248 32.9095 24.0281 32.9492 24.0225 32.9881V33.8273L24.2912 33.8287ZM25.7532 33.2245V33.1028C25.7532 32.7139 25.5392 32.444 25.1726 32.444C24.806 32.444 24.592 32.6999 24.592 33.1433C24.592 33.6637 24.8648 33.8427 25.2076 33.8427C25.3037 33.8477 25.3998 33.8311 25.4886 33.794C25.5775 33.757 25.6569 33.7005 25.721 33.6287L25.5448 33.4636C25.5039 33.5108 25.4528 33.5479 25.3953 33.5722C25.3378 33.5965 25.2755 33.6072 25.2132 33.6035C24.9879 33.6035 24.8648 33.4553 24.8648 33.2203L25.7532 33.2245ZM25.4804 33.0328H24.8648C24.8613 32.9689 24.8733 32.9051 24.8998 32.8468C24.9238 32.7951 24.9622 32.7514 25.0103 32.7208C25.0583 32.6901 25.1142 32.6738 25.1712 32.6738C25.2282 32.6738 25.2841 32.6901 25.3321 32.7208C25.3802 32.7514 25.4185 32.7951 25.4426 32.8468C25.4687 32.9053 25.4816 32.9688 25.4804 33.0328ZM27.0712 33.8287V32.914C27.0712 32.6034 26.8809 32.444 26.5115 32.444C26.4197 32.4338 26.3269 32.4465 26.2412 32.4809C26.1555 32.5153 26.0797 32.5704 26.0204 32.6412L26.2009 32.8104C26.2345 32.7638 26.28 32.727 26.3327 32.7038C26.3853 32.6807 26.4432 32.6721 26.5003 32.679C26.7144 32.679 26.8011 32.7629 26.8011 32.9349V33.0328H26.4388C26.1254 33.0328 25.9659 33.1979 25.9659 33.4273C25.9605 33.5318 25.9945 33.6346 26.061 33.7154C26.1104 33.7604 26.1686 33.7948 26.232 33.8162C26.2953 33.8376 26.3624 33.8457 26.429 33.8399C26.4963 33.8457 26.564 33.8361 26.627 33.8119C26.69 33.7877 26.7467 33.7494 26.7927 33.7V33.8245L27.0712 33.8287ZM26.7913 33.335C26.7986 33.4078 26.777 33.4807 26.7312 33.5378C26.6964 33.5681 26.6557 33.5908 26.6115 33.6043C26.5674 33.6178 26.5209 33.6218 26.4751 33.6161C26.3017 33.6161 26.2233 33.5448 26.2233 33.4217C26.2233 33.2986 26.3073 33.2245 26.4695 33.2245H26.7913V33.335ZM27.9736 33.8287V33.5937H27.8518C27.7413 33.5937 27.7035 33.5406 27.7035 33.4343V31.9055H27.4237V33.4441C27.4193 33.4947 27.4259 33.5456 27.4432 33.5934C27.4605 33.6411 27.4881 33.6845 27.524 33.7205C27.5598 33.7565 27.6031 33.7842 27.6508 33.8017C27.6985 33.8192 27.7495 33.826 27.8001 33.8217L27.9736 33.8287ZM28.7948 33.8287V33.5937H28.6815C28.6604 33.5956 28.6392 33.5928 28.6194 33.5853C28.5997 33.5778 28.5818 33.566 28.5673 33.5506C28.5527 33.5353 28.5419 33.5168 28.5355 33.4967C28.5291 33.4765 28.5273 33.4552 28.5304 33.4343V32.6944H28.7948V32.4831H28.5304V32.0635H28.2506V32.4831H28.0939V32.6944H28.2506V33.4469C28.2471 33.4972 28.2544 33.5478 28.272 33.5951C28.2895 33.6424 28.3169 33.6855 28.3524 33.7215C28.3878 33.7574 28.4305 33.7855 28.4776 33.8037C28.5247 33.822 28.5751 33.83 28.6255 33.8273L28.7948 33.8287ZM30.1939 33.8287V32.9461C30.2009 32.8807 30.1936 32.8146 30.1725 32.7524C30.1515 32.6901 30.1171 32.6331 30.0719 32.5854C30.0267 32.5376 29.9716 32.5003 29.9106 32.4759C29.8495 32.4515 29.7839 32.4406 29.7182 32.444C29.6517 32.4433 29.5858 32.4566 29.5248 32.4832C29.4638 32.5097 29.4091 32.5487 29.3643 32.5978V31.9069H29.0844V33.8273H29.3643V32.9881C29.3595 32.9493 29.3633 32.91 29.3754 32.8728C29.3875 32.8357 29.4076 32.8016 29.4343 32.7731C29.4609 32.7446 29.4935 32.7222 29.5298 32.7076C29.566 32.6931 29.6051 32.6866 29.6441 32.6888C29.6833 32.6858 29.7226 32.6918 29.7593 32.7061C29.7959 32.7204 29.8288 32.7427 29.8557 32.7715C29.8825 32.8002 29.9026 32.8345 29.9144 32.872C29.9262 32.9095 29.9294 32.9492 29.9239 32.9881V33.8273L30.1939 33.8287ZM31.593 32.4594H31.2992L30.9802 33.4245L30.6542 32.4594H30.3618L30.8403 33.7644L30.7647 33.977C30.7242 34.0889 30.6836 34.1169 30.5675 34.1169H30.4975V34.3644H30.608C30.659 34.3675 30.71 34.3602 30.758 34.3432C30.8061 34.3261 30.8503 34.2996 30.8879 34.2651C30.9335 34.2165 30.9674 34.1581 30.9872 34.0945L31.6 32.4566L31.593 32.4594ZM32.9011 33.8287V33.5937H32.7794C32.6689 33.5937 32.6311 33.5406 32.6311 33.4343V31.9055H32.3513V33.4441C32.3469 33.4945 32.3535 33.5454 32.3707 33.593C32.388 33.6406 32.4154 33.684 32.4511 33.7199C32.4868 33.7559 32.5299 33.7836 32.5774 33.8012C32.6249 33.8188 32.6757 33.8258 32.7263 33.8217L32.9011 33.8287ZM33.4328 32.1894V31.8971H33.1404V32.188L33.4328 32.1894ZM33.4244 33.8287V32.4566H33.1446V33.8259L33.4244 33.8287ZM34.4038 32.6958V32.4845H34.1337V32.2873C34.1307 32.2664 34.1324 32.2451 34.1388 32.2249C34.1452 32.2048 34.1561 32.1863 34.1706 32.171C34.1852 32.1556 34.203 32.1438 34.2228 32.1363C34.2426 32.1288 34.2638 32.126 34.2848 32.1279H34.4065V31.8971H34.2331C34.1826 31.8944 34.1322 31.9024 34.0851 31.9207C34.038 31.9389 33.9954 31.9669 33.9599 32.0029C33.9245 32.0389 33.8971 32.082 33.8795 32.1293C33.862 32.1766 33.8547 32.2272 33.8581 32.2775V32.4887H33.7014V32.6999H33.8581V33.8329H34.1379V32.6999L34.4038 32.6958ZM35.6895 33.2245V33.1028C35.6895 32.7139 35.4755 32.444 35.1075 32.444C34.7395 32.444 34.5283 32.6999 34.5283 33.1433C34.5283 33.6637 34.7997 33.8427 35.1439 33.8427C35.2398 33.8478 35.3357 33.8312 35.4243 33.7941C35.513 33.7571 35.5921 33.7005 35.6559 33.6287L35.481 33.4636C35.44 33.5109 35.3886 33.5481 35.3309 33.5724C35.2731 33.5966 35.2106 33.6073 35.1481 33.6035C34.9242 33.6035 34.7997 33.4553 34.7997 33.2203L35.6895 33.2245ZM35.4167 33.0328H34.7997C34.7975 32.9689 34.8099 32.9052 34.8361 32.8468C34.8601 32.7951 34.8985 32.7514 34.9466 32.7208C34.9946 32.6901 35.0505 32.6738 35.1075 32.6738C35.1645 32.6738 35.2204 32.6901 35.2684 32.7208C35.3165 32.7514 35.3548 32.7951 35.3789 32.8468C35.405 32.9053 35.4179 32.9688 35.4167 33.0328Z" fill="#00959A"/>
<path d="M8.81534 13.7012C7.93509 12.4734 6.62267 11.6225 5.14062 11.3187L5.81348 10.5003L7.58341 8.39807C8.7732 8.89559 10.2102 9.96911 11.3635 11.9017C10.8895 12.175 10.4309 12.474 9.98967 12.7973C9.56826 13.1056 9.18196 13.4097 8.81534 13.711" fill="#242357"/>
<path d="M10.0799 11.4841C7.9307 11.4841 6.31248 11.2039 5.67334 10.6825L5.82505 10.4989L7.59498 8.39673C8.69346 8.85641 10.0026 9.8066 11.1067 11.4673C10.7542 11.4799 10.4044 11.4869 10.0827 11.4869" fill="url(#paint0_linear_1926_11172)"/>
<path d="M4.49315 23.3896C4.42304 23.1901 4.36533 22.9865 4.32037 22.7799C4.32037 22.7799 4.27963 25.4287 6.42743 25.5983C8.57522 25.7678 12.8188 23.1289 12.9073 17.9645C12.9294 16.9014 12.8123 15.8399 12.559 14.807C11.6534 15.166 10.7775 15.5952 9.93919 16.0907C10.2407 17.2728 10.3526 18.4951 10.2707 19.7121C10.0853 23.255 6.87974 26.0958 5.18005 24.5247C5.14212 24.4897 5.1056 24.4519 5.06908 24.4112C4.95054 24.2806 4.84689 24.1372 4.76004 23.9838L4.75161 23.9698C4.72492 23.9221 4.69964 23.8745 4.67435 23.8296C4.66733 23.8142 4.66031 23.7988 4.65188 23.7834C4.63221 23.7413 4.61255 23.6979 4.59428 23.6544L4.569 23.5956C4.55074 23.5521 4.53388 23.5059 4.51562 23.4554L4.49455 23.398L4.49315 23.3896Z" fill="#27348B"/>
<path d="M22.0296 9.21935C21.3455 9.31325 14.8024 10.2761 10.5924 13.3831C4.80928 17.6519 4.17997 21.0813 4.32887 22.8374C4.52412 23.7917 4.87108 24.2388 5.18433 24.5191C4.06057 12.8491 24.728 12.4399 24.728 12.4399L24.2799 11.8891L22.0324 9.21375L22.0296 9.21935Z" fill="url(#paint1_linear_1926_11172)"/>
<path d="M8.06531 25.3152C8.19787 24.9741 8.26643 24.6116 8.26759 24.2458C8.26759 24.187 8.26759 24.1295 8.25776 24.0707C7.22951 24.9998 6.02428 25.2997 5.18426 24.5247C5.14633 24.4897 5.10981 24.4518 5.07329 24.4112C4.95475 24.2806 4.8511 24.1372 4.76425 23.9838L4.75583 23.9697C4.72914 23.9221 4.70385 23.8744 4.67857 23.8296C4.67154 23.8142 4.66452 23.7988 4.65609 23.7833C4.63643 23.7413 4.61676 23.6979 4.5985 23.6544L4.57321 23.5956C4.55495 23.5521 4.5381 23.5059 4.51983 23.4554L4.49876 23.3979C4.42642 23.1959 4.36684 22.9894 4.32037 22.7799C4.32037 22.7799 4.27963 25.4287 6.42743 25.5982C6.98582 25.6226 7.54293 25.527 8.0611 25.318L8.06531 25.3152Z" fill="url(#paint2_linear_1926_11172)"/>
<path d="M12.9117 17.9644C12.9117 17.7121 12.9117 17.4669 12.9019 17.2258C12.465 17.2889 12.0169 17.366 11.5632 17.4571C11.1095 17.5482 10.6684 17.6533 10.2399 17.7654C10.2991 18.4126 10.3108 19.0632 10.2751 19.712C10.2076 20.8937 9.82283 22.0356 9.16113 23.0181C9.87589 22.9889 10.5886 22.922 11.2963 22.8177C12.3382 21.4124 12.9041 19.7124 12.9117 17.9644Z" fill="url(#paint3_linear_1926_11172)"/>
<path d="M17.8394 13.2709C16.9771 12.3689 15.9495 11.6401 14.8123 11.1239C13.3429 11.7055 11.8624 12.4469 10.5981 13.3831C8.75376 14.7439 7.43615 16.0192 6.4978 17.1824L6.73801 17.4627L7.65388 17.8285C10.2147 15.3325 14.3066 13.9913 17.845 13.2723L17.8394 13.2709Z" fill="url(#paint4_linear_1926_11172)"/>
<path d="M10.9522 17.8958C11.6079 17.8951 12.2627 17.8482 12.9118 17.7557C12.917 16.7613 12.8 15.7701 12.5634 14.8042C11.6564 15.1639 10.779 15.5941 9.93945 16.0907C10.0949 16.676 10.1969 17.274 10.2443 17.8776C10.4761 17.8888 10.7106 17.8958 10.9466 17.8958H10.9522Z" fill="#27348B"/>
<path d="M11.8906 10.7063C12.4974 11.2136 13.9358 10.5003 15.1031 9.11281C16.2704 7.72537 16.7242 6.18796 16.1173 5.68063C15.5105 5.17331 14.0735 5.88665 12.9062 7.2741C11.7389 8.66154 11.2851 10.1989 11.8906 10.7063Z" fill="#CD1719"/>
<path d="M15.3068 8.85915C16.321 7.54318 16.6876 6.15713 16.1173 5.68063C15.5119 5.17331 14.0735 5.88665 12.9062 7.2741C12.5893 7.64782 12.3134 8.05421 12.083 8.48636C12.6351 8.69305 13.2124 8.82503 13.7996 8.87877C14.3011 8.92804 14.8067 8.92145 15.3068 8.85915Z" fill="#E52021"/>
<defs>
<linearGradient id="paint0_linear_1926_11172" x1="8.38302" y1="11.4841" x2="8.38302" y2="8.39393" gradientUnits="userSpaceOnUse">
<stop stop-color="#2D316F"/>
<stop offset="1" stop-color="#4B6CB1"/>
</linearGradient>
<linearGradient id="paint1_linear_1926_11172" x1="4.3106" y1="16.8727" x2="24.728" y2="16.8727" gradientUnits="userSpaceOnUse">
<stop stop-color="#007083"/>
<stop offset="0.13" stop-color="#008B94"/>
<stop offset="0.51" stop-color="#007486"/>
<stop offset="1" stop-color="#00959A"/>
</linearGradient>
<linearGradient id="paint2_linear_1926_11172" x1="4.32318" y1="24.1926" x2="8.26759" y2="24.1926" gradientUnits="userSpaceOnUse">
<stop stop-color="#7FB0E0"/>
<stop offset="1" stop-color="#2F3E92" stop-opacity="0"/>
</linearGradient>
<linearGradient id="paint3_linear_1926_11172" x1="11.0364" y1="23.0181" x2="11.0364" y2="17.2258" gradientUnits="userSpaceOnUse">
<stop stop-color="#87BCE7"/>
<stop offset="1" stop-color="#364C9C"/>
</linearGradient>
<linearGradient id="paint4_linear_1926_11172" x1="6.49218" y1="14.4748" x2="17.8394" y2="14.4748" gradientUnits="userSpaceOnUse">
<stop stop-color="#00959A"/>
<stop offset="0.53" stop-color="#00959A"/>
<stop offset="1" stop-color="#54AEB6"/>
</linearGradient>
</defs>
</svg>
