<?xml version="1.0" encoding="UTF-8"?>
<!DOCTYPE svg PUBLIC "-//W3C//DTD SVG 1.1//EN" "http://www.w3.org/Graphics/SVG/1.1/DTD/svg11.dtd">
<!-- Creator: CorelDRAW -->
<svg xmlns="http://www.w3.org/2000/svg" xml:space="preserve" width="1.99999in" height="1.99999in" version="1.1" style="shape-rendering:geometricPrecision; text-rendering:geometricPrecision; image-rendering:optimizeQuality; fill-rule:evenodd; clip-rule:evenodd"
viewBox="0 0 2000 2000"
 xmlns:xlink="http://www.w3.org/1999/xlink">
 <defs>
  <style type="text/css">
   <![CDATA[
    .fil0 {fill:none}
    .fil2 {fill:#043659}
    .fil1 {fill:#249ECF}
   ]]>
  </style>
 </defs>
 <rect class="fil0" width="2000" height="2000"/>
 <g id="Layer_x0020_1">
  <metadata id="CorelCorpID_0Corel-Layer"/>
  <path class="fil1" d="M1245 1434c-6,0 -13,-3 -19,-8 -10,-10 -10,-27 0,-38l162 -161c11,-11 27,-11 38,0 10,10 10,27 0,37l-162 162c-5,5 -12,8 -19,8z"/>
  <path class="fil1" d="M1345 1534c-7,0 -13,-3 -19,-8 -10,-11 -10,-27 0,-38l162 -162c11,-10 27,-10 38,0 10,11 10,28 0,38l-162 162c-5,5 -12,8 -19,8z"/>
  <path class="fil1" d="M1445 1634c-7,0 -14,-3 -19,-8 -10,-11 -10,-27 0,-38l162 -162c10,-10 27,-10 38,0 10,11 10,28 0,38l-162 162c-5,5 -12,8 -19,8z"/>
  <path class="fil1" d="M1545 1733c-7,0 -14,-2 -19,-7 -10,-11 -10,-28 0,-38l162 -162c10,-10 27,-10 37,0 11,11 11,27 0,38l-161 162c-5,5 -12,7 -19,7z"/>
  <path class="fil1" d="M1667 1694c-7,0 -13,-3 -19,-8l-382 -382c-10,-11 -10,-27 0,-38 11,-10 27,-10 38,0l382 382c10,11 10,27 0,38 -5,5 -12,8 -19,8z"/>
  <path class="fil1" d="M857 884c-6,0 -13,-3 -19,-8l-87 -87c-10,-11 -10,-27 0,-38 11,-10 27,-10 38,0l87 87c11,11 11,28 0,38 -5,6 -12,8 -19,8z"/>
  <path class="fil1" d="M627 901c-31,0 -61,-12 -83,-34l-363 -363c-22,-22 -34,-52 -34,-84 0,-31 12,-61 34,-83l156 -156c22,-22 52,-34 83,-34 32,0 62,12 84,34l363 363c22,22 34,52 34,83 0,32 -12,62 -34,84l-156 156c-22,22 -52,34 -84,34zm-207 -701c-16,0 -33,6 -46,19l-155 156c-12,12 -19,28 -19,46 0,17 7,33 19,46l363 362c12,12 28,19 45,19 18,0 34,-7 46,-19l156 -155c12,-13 19,-29 19,-46 0,-18 -7,-34 -19,-46l-363 -363c-12,-13 -29,-19 -46,-19z"/>
  <path class="fil1" d="M1230 1257c-7,0 -14,-3 -19,-8l-87 -88c-11,-10 -11,-27 0,-37 10,-11 27,-11 37,0l88 87c10,11 10,27 0,38 -5,5 -12,8 -19,8z"/>
  <path class="fil1" d="M1580 1853c-32,0 -62,-12 -84,-34l-363 -363c-22,-22 -34,-52 -34,-84 0,-31 12,-61 34,-83l156 -156c22,-22 52,-34 83,-34 32,0 62,12 84,34l363 363c22,22 34,52 34,84 0,31 -12,61 -34,83l-156 156c-22,22 -52,34 -83,34zm-208 -701c-17,0 -33,7 -45,19 0,0 0,0 0,0l-156 156c-12,12 -19,28 -19,45 0,18 7,34 19,46l363 363c12,12 28,19 46,19 17,0 33,-7 46,-19l155 -156c12,-12 19,-28 19,-46 0,-17 -7,-33 -19,-45l-363 -363c-12,-12 -28,-19 -46,-19zm-64 0l0 0 0 0z"/>
  <path class="fil1" d="M293 482c-6,0 -13,-3 -19,-8 -10,-10 -10,-27 0,-38l162 -162c11,-10 28,-10 38,0 10,11 10,28 0,38l-162 162c-5,5 -12,8 -19,8z"/>
  <path class="fil1" d="M393 582c-7,0 -13,-3 -19,-8 -10,-11 -10,-27 0,-38l162 -162c11,-10 27,-10 38,0 10,11 10,28 0,38l-162 162c-5,5 -12,8 -19,8z"/>
  <path class="fil1" d="M493 681c-7,0 -14,-2 -19,-7 -10,-11 -10,-28 0,-38l162 -162c10,-10 27,-10 38,0 10,10 10,27 0,38l-162 162c-5,5 -12,7 -19,7z"/>
  <path class="fil1" d="M593 781c-7,0 -14,-2 -19,-8 -11,-10 -11,-27 0,-37l162 -162c10,-11 27,-11 37,0 11,10 11,27 0,38l-161 161c-5,6 -12,8 -19,8z"/>
  <path class="fil1" d="M715 742c-7,0 -14,-3 -19,-8l-382 -382c-10,-11 -10,-28 0,-38 10,-10 27,-10 38,0l382 382c10,11 10,27 0,38 -5,5 -12,8 -19,8z"/>
  <path class="fil2" d="M897 1377c-32,0 -62,-12 -84,-34l-156 -156c-22,-22 -34,-52 -34,-83 0,-32 12,-62 34,-84l363 -363c22,-22 52,-34 84,-34 31,0 61,12 83,34l0 0 0 0 156 156c22,22 34,52 34,84 0,31 -12,61 -34,83l-363 363c-22,22 -52,34 -83,34zm206 -701c-17,0 -33,7 -46,19l-362 363c-12,12 -19,28 -19,46 0,17 7,33 19,46l156 155c12,12 28,19 46,19 17,0 33,-7 45,-19l363 -363c12,-12 19,-28 19,-46 0,-17 -7,-33 -19,-45l-156 -156 0 0c-12,-12 -28,-19 -46,-19z"/>
  <path class="fil2" d="M1246 781c-7,0 -14,-3 -19,-8 -10,-11 -10,-28 0,-38l104 -104c10,-10 27,-10 37,0 11,11 11,28 0,38l-103 104c-5,5 -12,8 -19,8z"/>
  <path class="fil2" d="M1492 784c-30,0 -58,-12 -79,-33l-164 -164c-44,-44 -44,-115 0,-159l145 -144c21,-21 49,-33 79,-33 30,0 58,12 79,33 0,0 0,0 0,0l165 164c21,21 32,49 32,79 0,30 -12,58 -32,80l-145 144c-22,21 -50,33 -80,33zm-19 -480c-16,0 -31,6 -42,17l-145 145c-23,23 -23,60 0,83l165 165c11,11 26,17 41,17 16,0 31,-6 42,-17l145 -145c11,-11 17,-26 17,-42 0,-15 -6,-30 -17,-41l-165 -165c-11,-11 -26,-17 -41,-17z"/>
  <path class="fil2" d="M650 1376c-7,0 -13,-2 -19,-7 -10,-11 -10,-28 0,-38l104 -104c10,-10 27,-10 38,0 10,11 10,28 0,38l-104 104c-5,5 -12,7 -19,7z"/>
  <path class="fil2" d="M650 1805c-7,0 -14,-2 -19,-7l-429 -429c-5,-5 -7,-12 -7,-19 0,-7 2,-14 7,-19 129,-129 338,-129 467,0 0,0 0,0 0,0 129,129 129,338 0,467 -5,5 -12,7 -19,7zm-390 -454l389 389c90,-108 84,-270 -17,-371 -102,-102 -264,-108 -372,-18z"/>
  <path class="fil2" d="M721 1695c-7,0 -14,-3 -19,-8l-389 -389c-11,-10 -11,-27 0,-37 10,-11 27,-11 37,0l390 389c10,10 10,27 0,37 -6,5 -13,8 -19,8z"/>
  <path class="fil2" d="M1102 993c-25,0 -49,-9 -67,-28 -38,-37 -38,-97 0,-134 37,-38 97,-38 134,0 38,37 38,97 0,134 -18,19 -43,28 -67,28zm0 -137c-11,0 -21,4 -30,12 -16,17 -16,43 0,60 17,16 43,16 60,0 16,-17 16,-43 0,-60 -9,-8 -19,-12 -30,-12z"/>
  <path class="fil2" d="M898 1197c-24,0 -49,-9 -67,-28 -38,-37 -38,-97 0,-134 18,-18 42,-28 67,-28 25,0 49,10 68,28 37,37 37,97 0,134 -19,19 -44,28 -68,28zm0 -137c-11,0 -22,4 -30,12 -16,17 -16,43 0,60 17,16 43,16 60,0 16,-17 16,-43 0,-60 -8,-8 -19,-12 -30,-12z"/>
 </g>
</svg>
