<svg width="24" height="24" viewBox="0 0 24 24" fill="none" xmlns="http://www.w3.org/2000/svg">
<circle cx="12" cy="12" r="10.5" fill="white" stroke="#1F3B44" stroke-linecap="round" stroke-linejoin="round"/>
<path d="M13.6562 11.8447C13.0816 12.1972 12.7419 12.6038 12.5894 13.1863C12.4742 13.6264 12.1263 14.0002 11.6713 14.0002C11.2115 14.0002 10.8297 13.6239 10.8864 13.1675C11.0336 11.9814 11.5064 11.442 12.2344 10.9896C12.8359 10.6117 13.2983 10.1345 13.2983 9.43843C13.2983 8.65789 12.6868 8.15079 11.9261 8.15079C11.4699 8.15079 11.0243 8.34029 10.7563 8.73024C10.4861 9.12343 10.1292 9.53289 9.65212 9.53289C9.14922 9.53289 8.72801 9.10882 8.87916 8.62917C9.28647 7.33665 10.4994 6.6792 11.9361 6.6792C13.8352 6.6792 15.1428 7.73318 15.1428 9.41357C15.1428 10.5521 14.571 11.2978 13.6562 11.8447Z" fill="#1F3B44"/>
<path d="M12.8011 16.0158C12.7962 16.6224 12.294 17.1096 11.7074 17.1096C11.1009 17.1096 10.6087 16.6224 10.6136 16.0158C10.6087 15.4193 11.1009 14.932 11.7074 14.932C12.294 14.932 12.7962 15.4193 12.8011 16.0158Z" fill="#1F3B44"/>
</svg>
